<?xml version="1.0" encoding="UTF-8" standalone="no"?>
<!DOCTYPE svg PUBLIC "-//W3C//DTD SVG 1.1//EN" "http://www.w3.org/Graphics/SVG/1.1/DTD/svg11.dtd">
<svg width="100%" height="100%" viewBox="0 0 92 93" version="1.1" xmlns="http://www.w3.org/2000/svg" xmlns:xlink="http://www.w3.org/1999/xlink" xml:space="preserve" xmlns:serif="http://www.serif.com/" style="fill-rule:evenodd;clip-rule:evenodd;stroke-linejoin:round;stroke-miterlimit:2;">
    <g id="Regular-M" transform="matrix(1,0,0,1,-11.2305,81.6406)">
        <path d="M48.779,-6.543C56.934,-6.543 64.453,-9.18 70.606,-13.574L93.75,9.57C94.824,10.645 96.24,11.182 97.754,11.182C100.928,11.182 103.174,8.74 103.174,5.615C103.174,4.15 102.686,2.734 101.611,1.709L78.613,-21.338C83.447,-27.686 86.328,-35.547 86.328,-44.092C86.328,-64.746 69.434,-81.641 48.779,-81.641C28.174,-81.641 11.23,-64.795 11.23,-44.092C11.23,-23.438 28.125,-6.543 48.779,-6.543ZM48.779,-14.648C32.666,-14.648 19.336,-27.979 19.336,-44.092C19.336,-60.205 32.666,-73.535 48.779,-73.535C64.893,-73.535 78.223,-60.205 78.223,-44.092C78.223,-27.979 64.893,-14.648 48.779,-14.648ZM36.231,-40.527L45.215,-40.527L45.215,-31.543C45.215,-29.541 46.777,-27.979 48.779,-27.979C50.781,-27.979 52.393,-29.541 52.393,-31.543L52.393,-40.527L61.328,-40.527C63.33,-40.527 64.893,-42.09 64.893,-44.092C64.893,-46.094 63.33,-47.705 61.328,-47.705L52.393,-47.705L52.393,-56.641C52.393,-58.643 50.781,-60.205 48.779,-60.205C46.777,-60.205 45.215,-58.643 45.215,-56.641L45.215,-47.705L36.231,-47.705C34.228,-47.705 32.666,-46.094 32.666,-44.092C32.666,-42.09 34.228,-40.527 36.231,-40.527Z" style="fill:rgb(191,191,191);fill-rule:nonzero;"/>
    </g>
</svg>
