<?xml version="1.0" encoding="UTF-8" standalone="no"?>
<!DOCTYPE svg PUBLIC "-//W3C//DTD SVG 1.1//EN" "http://www.w3.org/Graphics/SVG/1.1/DTD/svg11.dtd">
<svg width="100%" height="100%" viewBox="0 0 92 93" version="1.1" xmlns="http://www.w3.org/2000/svg" xmlns:xlink="http://www.w3.org/1999/xlink" xml:space="preserve" xmlns:serif="http://www.serif.com/" style="fill-rule:evenodd;clip-rule:evenodd;stroke-linejoin:round;stroke-miterlimit:2;">
    <g id="Regular-M" transform="matrix(1,0,0,1,-11.2305,81.6406)">
        <path d="M48.779,-6.543C56.934,-6.543 64.453,-9.18 70.606,-13.574L93.75,9.57C94.824,10.645 96.24,11.182 97.754,11.182C100.928,11.182 103.174,8.74 103.174,5.615C103.174,4.15 102.686,2.734 101.611,1.709L78.613,-21.338C83.447,-27.686 86.328,-35.547 86.328,-44.092C86.328,-64.746 69.434,-81.641 48.779,-81.641C28.174,-81.641 11.23,-64.795 11.23,-44.092C11.23,-23.438 28.125,-6.543 48.779,-6.543ZM48.779,-14.648C32.666,-14.648 19.336,-27.979 19.336,-44.092C19.336,-60.205 32.666,-73.535 48.779,-73.535C64.893,-73.535 78.223,-60.205 78.223,-44.092C78.223,-27.979 64.893,-14.648 48.779,-14.648ZM31.592,-46.094C31.592,-43.457 34.375,-43.115 35.791,-44.482L39.893,-48.535L53.027,-35.4L48.779,-31.25C47.266,-29.785 47.754,-27.051 50.391,-27.051L63.037,-27.051C64.795,-27.051 65.772,-28.174 65.772,-30.176L65.772,-42.188C65.772,-44.824 62.988,-45.166 61.572,-43.799L57.52,-39.795L44.385,-52.93L48.584,-57.031C50.098,-58.496 49.609,-61.231 46.973,-61.231L34.326,-61.231C32.568,-61.231 31.592,-60.107 31.592,-58.106L31.592,-46.094Z" style="fill:rgb(191,191,191);fill-rule:nonzero;"/>
    </g>
</svg>
