<?xml version="1.0" encoding="UTF-8" standalone="no"?>
<!DOCTYPE svg PUBLIC "-//W3C//DTD SVG 1.1//EN" "http://www.w3.org/Graphics/SVG/1.1/DTD/svg11.dtd">
<svg width="100%" height="100%" viewBox="0 0 116 90" version="1.1" xmlns="http://www.w3.org/2000/svg" xmlns:xlink="http://www.w3.org/1999/xlink" xml:space="preserve" xmlns:serif="http://www.serif.com/" style="fill-rule:evenodd;clip-rule:evenodd;stroke-linejoin:round;stroke-miterlimit:2;">
    <g id="Regular-M" transform="matrix(1,0,0,1,-12.4512,80.127)">
        <path d="M100.244,-40.82C100.244,-48.633 96.045,-52.783 88.086,-52.783L12.451,-52.783L12.451,-64.99C12.451,-75.098 17.578,-80.127 27.783,-80.127L112.256,-80.127C122.51,-80.127 127.588,-75.049 127.588,-64.99L127.588,-5.371C127.588,4.688 122.51,9.766 112.256,9.766L100.244,9.766L100.244,-40.82ZM93.262,-40.039L93.262,9.766L72.363,9.766L72.363,-45.801L87.598,-45.801C91.162,-45.801 93.262,-43.652 93.262,-40.039ZM27.783,9.766C17.578,9.766 12.451,4.736 12.451,-5.371L12.451,-45.801L65.381,-45.801L65.381,9.766L27.783,9.766Z" style="fill:rgb(191,191,191);fill-rule:nonzero;"/>
    </g>
</svg>
