<?xml version="1.0" encoding="UTF-8" standalone="no"?>
<!DOCTYPE svg PUBLIC "-//W3C//DTD SVG 1.1//EN" "http://www.w3.org/Graphics/SVG/1.1/DTD/svg11.dtd">
<svg width="100%" height="100%" viewBox="0 0 83 105" version="1.1" xmlns="http://www.w3.org/2000/svg" xmlns:xlink="http://www.w3.org/1999/xlink" xml:space="preserve" xmlns:serif="http://www.serif.com/" style="fill-rule:evenodd;clip-rule:evenodd;stroke-linejoin:round;stroke-miterlimit:2;">
    <g id="Regular-M" transform="matrix(1,0,0,1,-12.4512,87.5977)">
        <path d="M27.588,17.09L79.443,17.09C89.551,17.09 94.58,11.963 94.58,1.807L94.58,-42.529L59.228,-42.529C52.978,-42.529 50,-45.508 50,-51.758L50,-87.598L27.588,-87.598C17.529,-87.598 12.451,-82.422 12.451,-72.266L12.451,1.807C12.451,12.012 17.481,17.09 27.588,17.09ZM59.375,-49.219L93.994,-49.219C93.701,-51.221 92.285,-53.174 89.941,-55.566L63.037,-82.959C60.742,-85.303 58.74,-86.719 56.69,-87.061L56.69,-51.856C56.69,-50.098 57.568,-49.219 59.375,-49.219Z" style="fill:rgb(55,88,255);fill-rule:nonzero;"/>
    </g>
</svg>
