<?xml version="1.0" encoding="UTF-8" standalone="no"?>
<!DOCTYPE svg PUBLIC "-//W3C//DTD SVG 1.1//EN" "http://www.w3.org/Graphics/SVG/1.1/DTD/svg11.dtd">
<svg width="100%" height="100%" viewBox="0 0 100 100" version="1.1" xmlns="http://www.w3.org/2000/svg" xmlns:xlink="http://www.w3.org/1999/xlink" xml:space="preserve" xmlns:serif="http://www.serif.com/" style="fill-rule:evenodd;clip-rule:evenodd;stroke-linejoin:round;stroke-miterlimit:2;">
    <g id="Regular-M" transform="matrix(1,0,0,1,-8.74023,85.0586)">
        <path d="M58.545,14.551C85.791,14.551 108.35,-8.057 108.35,-35.254C108.35,-62.5 85.742,-85.059 58.496,-85.059C31.299,-85.059 8.74,-62.5 8.74,-35.254C8.74,-8.057 31.348,14.551 58.545,14.551ZM58.545,6.25C35.498,6.25 17.09,-12.207 17.09,-35.254C17.09,-58.301 35.449,-76.758 58.496,-76.758C81.543,-76.758 100,-58.301 100.049,-35.254C100.098,-12.207 81.592,6.25 58.545,6.25ZM58.594,-16.162C69.141,-16.162 77.734,-24.707 77.734,-35.303C77.734,-45.85 69.141,-54.443 58.594,-54.443C47.998,-54.443 39.404,-45.85 39.404,-35.303C39.404,-24.707 47.998,-16.162 58.594,-16.162Z" style="fill:rgb(198,52,0);fill-rule:nonzero;"/>
    </g>
</svg>
