<?xml version="1.0" encoding="UTF-8" standalone="no"?>
<!DOCTYPE svg PUBLIC "-//W3C//DTD SVG 1.1//EN" "http://www.w3.org/Graphics/SVG/1.1/DTD/svg11.dtd">
<svg width="100%" height="100%" viewBox="0 0 111 111" version="1.1" xmlns="http://www.w3.org/2000/svg" xmlns:xlink="http://www.w3.org/1999/xlink" xml:space="preserve" xmlns:serif="http://www.serif.com/" style="fill-rule:evenodd;clip-rule:evenodd;stroke-linejoin:round;stroke-miterlimit:2;">
    <g id="Regular-M" transform="matrix(1,0,0,1,-8.74023,90.2344)">
        <path d="M63.77,-90.234C62.158,-90.234 60.889,-88.916 60.889,-87.305L60.889,-69.19C60.889,-67.529 62.158,-66.26 63.77,-66.26C65.43,-66.26 66.699,-67.529 66.699,-69.19L66.699,-87.305C66.699,-88.916 65.43,-90.234 63.77,-90.234ZM49.365,-88.916C47.754,-88.574 46.875,-87.158 47.363,-85.303L48.975,-79.15C49.414,-77.637 50.928,-76.807 52.734,-77.344C54.443,-77.881 55.127,-79.248 54.639,-80.811L52.93,-86.719C52.441,-88.477 51.025,-89.209 49.365,-88.916ZM78.223,-88.769C76.66,-89.307 75.147,-88.525 74.658,-86.719L72.998,-80.713C72.559,-79.15 73.438,-77.539 75,-77.148C76.563,-76.758 78.125,-77.588 78.565,-79.199L80.176,-85.205C80.615,-86.865 79.785,-88.33 78.223,-88.769ZM36.279,-82.91C34.863,-82.08 34.424,-80.322 35.254,-78.906L44.287,-63.184C45.117,-61.719 46.875,-61.279 48.242,-62.109C49.658,-62.891 50.147,-64.648 49.316,-66.065L40.234,-81.836C39.404,-83.203 37.695,-83.643 36.279,-82.91ZM91.357,-82.861C89.941,-83.643 88.184,-83.203 87.354,-81.836L78.32,-66.065C77.441,-64.648 77.93,-62.891 79.346,-62.109C80.713,-61.279 82.519,-61.719 83.301,-63.184L92.383,-78.906C93.164,-80.322 92.725,-82.031 91.357,-82.861ZM24.463,-74.463C23.291,-73.34 23.438,-71.484 24.512,-70.361L28.857,-65.967C30.078,-64.746 31.738,-64.697 33.008,-65.918C34.131,-67.041 34.18,-68.799 32.959,-70.068L28.613,-74.414C27.344,-75.684 25.684,-75.635 24.463,-74.463ZM103.125,-74.414C101.953,-75.586 100.098,-75.488 99.023,-74.414L94.58,-70.019C93.359,-68.75 93.359,-67.09 94.58,-65.918C95.752,-64.697 97.51,-64.697 98.633,-65.869L102.979,-70.264C104.199,-71.533 104.248,-73.242 103.125,-74.414ZM16.162,-62.744C15.332,-61.328 15.772,-59.57 17.188,-58.74L32.91,-49.658C34.375,-48.828 36.084,-49.316 36.914,-50.684C37.695,-52.1 37.256,-53.857 35.791,-54.688L20.068,-63.77C18.652,-64.551 16.943,-64.111 16.162,-62.744ZM111.523,-62.695C110.693,-64.111 108.936,-64.551 107.52,-63.77L91.797,-54.688C90.332,-53.857 89.893,-52.1 90.723,-50.684C91.504,-49.316 93.262,-48.828 94.678,-49.658L110.449,-58.74C111.816,-59.57 112.256,-61.279 111.523,-62.695ZM117.48,-49.512C117.09,-51.123 115.43,-52.051 113.965,-51.611L107.861,-49.951C106.299,-49.512 105.371,-47.998 105.908,-46.191C106.299,-44.922 107.666,-43.897 109.424,-44.336L115.332,-45.996C117.041,-46.436 117.871,-47.998 117.48,-49.512ZM10.059,-49.561C9.717,-47.998 10.693,-46.436 12.158,-45.996L18.164,-44.287C19.824,-43.897 21.387,-44.775 21.729,-46.387C22.07,-47.949 21.338,-49.609 19.727,-50L13.721,-51.514C11.963,-51.953 10.4,-51.074 10.059,-49.561ZM118.848,-35.205C118.848,-36.816 117.578,-38.086 115.918,-38.086L97.803,-38.086C96.143,-38.086 94.873,-36.816 94.873,-35.205C94.873,-33.545 96.143,-32.275 97.803,-32.275L115.918,-32.275C117.578,-32.275 118.848,-33.545 118.848,-35.205ZM8.74,-35.205C8.74,-33.545 10.059,-32.275 11.67,-32.275L29.785,-32.275C31.494,-32.275 32.715,-33.545 32.715,-35.205C32.715,-36.816 31.494,-38.086 29.785,-38.086L11.67,-38.086C10.059,-38.086 8.74,-36.816 8.74,-35.205ZM117.48,-20.654C117.92,-22.315 117.188,-23.828 115.479,-24.316L109.424,-26.025C107.764,-26.465 106.25,-25.537 105.859,-23.975C105.469,-22.363 106.348,-20.703 107.861,-20.313L113.867,-18.75C115.576,-18.311 117.041,-19.19 117.48,-20.654ZM10.107,-20.801C10.498,-19.238 12.158,-18.408 13.672,-18.75L19.727,-20.264C21.387,-20.703 22.217,-22.217 21.777,-23.828C21.338,-25.391 19.775,-26.318 18.164,-25.928L12.305,-24.316C10.498,-23.828 9.717,-22.315 10.107,-20.801ZM111.475,-7.666C112.256,-9.033 111.816,-10.791 110.449,-11.621L94.678,-20.703C93.262,-21.533 91.504,-21.045 90.723,-19.678C89.893,-18.262 90.332,-16.504 91.797,-15.674L107.52,-6.592C108.936,-5.811 110.645,-6.25 111.475,-7.666ZM16.113,-7.666C16.895,-6.25 18.652,-5.811 20.068,-6.592L35.791,-15.674C37.256,-16.504 37.695,-18.262 36.914,-19.629C36.084,-21.045 34.375,-21.533 32.91,-20.703L17.188,-11.621C15.772,-10.791 15.332,-9.082 16.113,-7.666ZM36.279,12.5C37.647,13.281 39.453,12.842 40.234,11.426L49.316,-4.297C50.147,-5.713 49.658,-7.471 48.291,-8.301C46.875,-9.082 45.117,-8.643 44.287,-7.178L35.254,8.545C34.424,9.961 34.863,11.67 36.279,12.5ZM91.309,12.5C92.725,11.719 93.164,9.961 92.383,8.545L83.301,-7.178C82.519,-8.643 80.713,-9.082 79.346,-8.301C77.93,-7.471 77.441,-5.713 78.32,-4.297L87.354,11.426C88.184,12.842 89.893,13.281 91.309,12.5ZM103.076,4.15C104.297,2.93 104.199,1.074 103.174,0L98.682,-4.395C97.51,-5.518 95.752,-5.664 94.482,-4.395C93.359,-3.174 93.457,-1.514 94.58,-0.342L98.975,4.053C100.195,5.273 101.904,5.322 103.076,4.15ZM24.512,4.102C25.732,5.273 27.49,5.273 28.565,4.199L33.008,-0.195C34.228,-1.465 34.277,-3.125 33.057,-4.297C31.934,-5.469 30.078,-5.518 28.955,-4.346L24.609,0.049C23.389,1.318 23.34,2.93 24.512,4.102ZM63.77,19.873C65.43,19.873 66.699,18.555 66.699,16.943L66.699,-1.172C66.699,-2.832 65.43,-4.102 63.77,-4.102C62.158,-4.102 60.889,-2.832 60.889,-1.172L60.889,16.943C60.889,18.555 62.158,19.873 63.77,19.873ZM78.223,18.555C80.078,18.115 80.615,16.504 80.225,14.99L78.662,8.838C78.223,7.275 76.563,6.396 75,6.836C73.291,7.324 72.559,8.936 72.998,10.4L74.756,16.357C75.244,17.969 76.465,18.897 78.223,18.555ZM49.121,18.506C50.928,19.092 52.539,18.018 52.93,16.504L54.59,10.498C55.029,8.936 54.15,7.324 52.588,6.934C51.025,6.543 49.463,7.373 49.023,8.984L47.412,14.99C46.973,16.65 47.51,18.018 49.121,18.506Z" style="fill:rgb(55,88,255);fill-rule:nonzero;"/>
    </g>
</svg>
