<?xml version="1.0" encoding="UTF-8" standalone="no"?>
<!DOCTYPE svg PUBLIC "-//W3C//DTD SVG 1.1//EN" "http://www.w3.org/Graphics/SVG/1.1/DTD/svg11.dtd">
<svg width="100%" height="100%" viewBox="0 0 100 100" version="1.1" xmlns="http://www.w3.org/2000/svg" xmlns:xlink="http://www.w3.org/1999/xlink" xml:space="preserve" xmlns:serif="http://www.serif.com/" style="fill-rule:evenodd;clip-rule:evenodd;stroke-linejoin:round;stroke-miterlimit:2;">
    <g id="Regular-M" transform="matrix(1,0,0,1,-8.74023,85.0586)">
        <path d="M58.545,14.551C85.791,14.551 108.35,-8.057 108.35,-35.254C108.35,-62.5 85.742,-85.059 58.496,-85.059C31.299,-85.059 8.74,-62.5 8.74,-35.254C8.74,-8.057 31.348,14.551 58.545,14.551ZM32.129,-41.016C32.129,-52.539 41.553,-62.012 53.076,-62.012C64.6,-62.012 74.023,-52.588 74.023,-41.016C74.023,-36.719 72.656,-32.666 70.41,-29.395L83.35,-16.357C84.18,-15.479 84.717,-14.404 84.717,-13.281C84.717,-10.742 83.057,-8.936 80.615,-8.936C79.15,-8.936 78.076,-9.424 77.051,-10.498L64.16,-23.34C60.938,-21.338 57.129,-20.068 53.076,-20.068C41.553,-20.068 32.129,-29.541 32.129,-41.016ZM39.014,-41.016C39.014,-33.35 45.361,-26.953 53.076,-26.953C60.742,-26.953 67.09,-33.35 67.09,-41.016C67.09,-48.779 60.742,-55.127 53.076,-55.127C45.361,-55.127 39.014,-48.731 39.014,-41.016Z" style="fill-rule:nonzero;"/>
    </g>
</svg>
