<?xml version="1.0" encoding="UTF-8" standalone="no"?>
<!DOCTYPE svg PUBLIC "-//W3C//DTD SVG 1.1//EN" "http://www.w3.org/Graphics/SVG/1.1/DTD/svg11.dtd">
<svg width="100%" height="100%" viewBox="0 0 95 108" version="1.1" xmlns="http://www.w3.org/2000/svg" xmlns:xlink="http://www.w3.org/1999/xlink" xml:space="preserve" xmlns:serif="http://www.serif.com/" style="fill-rule:evenodd;clip-rule:evenodd;stroke-linejoin:round;stroke-miterlimit:2;">
    <g id="Regular-M" transform="matrix(1,0,0,1,-7.4707,94.4824)">
        <path d="M31.543,13.037L77.979,13.037C84.033,13.037 87.695,9.668 87.94,3.613L91.065,-67.725L98.389,-67.725C100.391,-67.725 102.051,-69.434 102.051,-71.436C102.051,-73.438 100.391,-75.098 98.389,-75.098L76.611,-75.098L76.611,-82.568C76.611,-89.941 71.777,-94.482 63.965,-94.482L45.459,-94.482C37.647,-94.482 32.813,-89.941 32.813,-82.568L32.813,-75.098L11.133,-75.098C9.18,-75.098 7.471,-73.438 7.471,-71.436C7.471,-69.385 9.18,-67.725 11.133,-67.725L18.506,-67.725L21.631,3.613C21.875,9.668 25.537,13.037 31.543,13.037ZM41.65,-82.08C41.65,-84.522 43.359,-86.182 45.996,-86.182L63.477,-86.182C66.113,-86.182 67.822,-84.522 67.822,-82.08L67.822,-75.098L41.65,-75.098L41.65,-82.08ZM39.307,-0.928C37.549,-0.928 36.328,-2.051 36.279,-3.809L34.766,-56.982C34.717,-58.691 35.938,-59.863 37.842,-59.863C39.551,-59.863 40.82,-58.74 40.869,-57.031L42.334,-3.809C42.383,-2.1 41.162,-0.928 39.307,-0.928ZM54.785,-0.928C52.93,-0.928 51.611,-2.1 51.611,-3.809L51.611,-56.982C51.611,-58.691 52.93,-59.863 54.785,-59.863C56.641,-59.863 57.91,-58.691 57.91,-56.982L57.91,-3.809C57.91,-2.1 56.641,-0.928 54.785,-0.928ZM70.215,-0.928C68.359,-0.928 67.139,-2.1 67.188,-3.809L68.652,-56.982C68.701,-58.74 69.971,-59.863 71.68,-59.863C73.535,-59.863 74.805,-58.691 74.756,-56.982L73.242,-3.809C73.193,-2.051 71.973,-0.928 70.215,-0.928Z" style="fill:rgb(226,181,1);fill-rule:nonzero;"/>
    </g>
</svg>
