<?xml version="1.0" encoding="UTF-8" standalone="no"?>
<!DOCTYPE svg PUBLIC "-//W3C//DTD SVG 1.1//EN" "http://www.w3.org/Graphics/SVG/1.1/DTD/svg11.dtd">
<svg width="100%" height="100%" viewBox="0 0 91 75" version="1.1" xmlns="http://www.w3.org/2000/svg" xmlns:xlink="http://www.w3.org/1999/xlink" xml:space="preserve" xmlns:serif="http://www.serif.com/" style="fill-rule:evenodd;clip-rule:evenodd;stroke-linejoin:round;stroke-miterlimit:2;">
    <g id="Regular-M" transform="matrix(1,0,0,1,-12.4512,72.2656)">
        <path d="M12.451,-35.254C12.451,-34.033 12.988,-32.91 13.965,-31.982L46.387,0.391C47.363,1.318 48.389,1.758 49.561,1.758C51.953,1.758 53.857,0 53.857,-2.441C53.857,-3.613 53.418,-4.785 52.637,-5.518L41.699,-16.65L25.244,-31.641L37.061,-30.908L98.828,-30.908C101.367,-30.908 103.125,-32.715 103.125,-35.254C103.125,-37.793 101.367,-39.6 98.828,-39.6L37.061,-39.6L25.293,-38.867L41.699,-53.857L52.637,-64.99C53.418,-65.772 53.857,-66.894 53.857,-68.066C53.857,-70.508 51.953,-72.266 49.561,-72.266C48.389,-72.266 47.363,-71.875 46.289,-70.801L13.965,-38.525C12.988,-37.598 12.451,-36.475 12.451,-35.254Z" style="fill:rgb(191,191,191);fill-rule:nonzero;"/>
    </g>
</svg>
