<?xml version="1.0" encoding="UTF-8" standalone="no"?>
<!DOCTYPE svg PUBLIC "-//W3C//DTD SVG 1.1//EN" "http://www.w3.org/Graphics/SVG/1.1/DTD/svg11.dtd">
<svg width="100%" height="100%" viewBox="0 0 90 90" version="1.1" xmlns="http://www.w3.org/2000/svg" xmlns:xlink="http://www.w3.org/1999/xlink" xml:space="preserve" xmlns:serif="http://www.serif.com/" style="fill-rule:evenodd;clip-rule:evenodd;stroke-linejoin:round;stroke-miterlimit:2;">
    <g id="Regular-M" transform="matrix(1,0,0,1,-12.4512,80.0293)">
        <path d="M97.998,-71.729C100.293,-71.729 102.148,-73.584 102.148,-75.879C102.148,-78.174 100.293,-80.029 97.998,-80.029C95.703,-80.029 93.848,-78.174 93.848,-75.879C93.848,-73.584 95.703,-71.729 97.998,-71.729ZM84.424,-71.729C86.67,-71.729 88.525,-73.584 88.525,-75.879C88.525,-78.174 86.67,-80.029 84.424,-80.029C82.129,-80.029 80.273,-78.174 80.273,-75.879C80.273,-73.584 82.129,-71.729 84.424,-71.729ZM16.602,-71.729C18.897,-71.729 20.752,-73.584 20.752,-75.879C20.752,-78.174 18.897,-80.029 16.602,-80.029C14.307,-80.029 12.451,-78.174 12.451,-75.879C12.451,-73.584 14.307,-71.729 16.602,-71.729ZM30.176,-71.729C32.471,-71.729 34.326,-73.584 34.326,-75.879C34.326,-78.174 32.471,-80.029 30.176,-80.029C27.881,-80.029 26.025,-78.174 26.025,-75.879C26.025,-73.584 27.881,-71.729 30.176,-71.729ZM43.701,-71.729C45.996,-71.729 47.852,-73.584 47.852,-75.879C47.852,-78.174 45.996,-80.029 43.701,-80.029C41.406,-80.029 39.551,-78.174 39.551,-75.879C39.551,-73.584 41.406,-71.729 43.701,-71.729ZM57.275,-71.729C59.57,-71.729 61.426,-73.584 61.426,-75.879C61.426,-78.174 59.57,-80.029 57.275,-80.029C55.029,-80.029 53.125,-78.174 53.125,-75.879C53.125,-73.584 55.029,-71.729 57.275,-71.729ZM70.898,-71.729C73.144,-71.729 75.049,-73.584 75.049,-75.879C75.049,-78.174 73.144,-80.029 70.898,-80.029C68.604,-80.029 66.748,-78.174 66.748,-75.879C66.748,-73.584 68.604,-71.729 70.898,-71.729ZM16.602,-58.154C18.897,-58.154 20.752,-60.01 20.752,-62.305C20.752,-64.6 18.897,-66.455 16.602,-66.455C14.307,-66.455 12.451,-64.6 12.451,-62.305C12.451,-60.01 14.307,-58.154 16.602,-58.154ZM97.998,-58.106C100.293,-58.106 102.148,-59.961 102.148,-62.256C102.148,-64.551 100.293,-66.406 97.998,-66.406C95.703,-66.406 93.848,-64.551 93.848,-62.256C93.848,-59.961 95.703,-58.106 97.998,-58.106ZM29.932,-12.012C29.932,-9.668 31.494,-8.105 33.838,-8.105L80.762,-8.105C83.106,-8.105 84.668,-9.668 84.668,-12.012L84.668,-58.545C84.668,-60.889 83.106,-62.402 80.762,-62.402L33.838,-62.402C31.494,-62.402 29.932,-60.889 29.932,-58.545L29.932,-12.012ZM37.793,-17.383L37.793,-53.125C37.793,-54.199 38.184,-54.541 39.209,-54.541L75.391,-54.541C76.416,-54.541 76.807,-54.199 76.807,-53.125L76.807,-17.383C76.807,-16.357 76.416,-15.967 75.391,-15.967L39.209,-15.967C38.184,-15.967 37.793,-16.357 37.793,-17.383ZM16.602,-44.727C18.897,-44.727 20.752,-46.582 20.752,-48.828C20.752,-51.123 18.897,-52.978 16.602,-52.978C14.307,-52.978 12.451,-51.123 12.451,-48.828C12.451,-46.582 14.307,-44.727 16.602,-44.727ZM97.998,-44.678C100.293,-44.678 102.148,-46.533 102.148,-48.779C102.148,-51.074 100.293,-52.93 97.998,-52.93C95.703,-52.93 93.848,-51.074 93.848,-48.779C93.848,-46.533 95.703,-44.678 97.998,-44.678ZM16.602,-31.104C18.897,-31.104 20.752,-32.959 20.752,-35.254C20.752,-37.549 18.897,-39.404 16.602,-39.404C14.307,-39.404 12.451,-37.549 12.451,-35.254C12.451,-32.959 14.307,-31.104 16.602,-31.104ZM97.998,-31.055C100.293,-31.055 102.148,-32.91 102.148,-35.205C102.148,-37.5 100.293,-39.356 97.998,-39.356C95.703,-39.356 93.848,-37.5 93.848,-35.205C93.848,-32.91 95.703,-31.055 97.998,-31.055ZM16.602,-17.529C18.897,-17.529 20.752,-19.385 20.752,-21.68C20.752,-23.975 18.897,-25.83 16.602,-25.83C14.307,-25.83 12.451,-23.975 12.451,-21.68C12.451,-19.385 14.307,-17.529 16.602,-17.529ZM97.998,-17.481C100.293,-17.481 102.148,-19.336 102.148,-21.631C102.148,-23.926 100.293,-25.781 97.998,-25.781C95.703,-25.781 93.848,-23.926 93.848,-21.631C93.848,-19.336 95.703,-17.481 97.998,-17.481ZM16.602,-4.004C18.897,-4.004 20.752,-5.859 20.752,-8.154C20.752,-10.449 18.897,-12.305 16.602,-12.305C14.307,-12.305 12.451,-10.449 12.451,-8.154C12.451,-5.859 14.307,-4.004 16.602,-4.004ZM97.998,-3.955C100.293,-3.955 102.148,-5.811 102.148,-8.105C102.148,-10.4 100.293,-12.256 97.998,-12.256C95.703,-12.256 93.848,-10.4 93.848,-8.105C93.848,-5.811 95.703,-3.955 97.998,-3.955ZM97.998,9.668C100.293,9.668 102.148,7.764 102.148,5.518C102.148,3.223 100.293,1.367 97.998,1.367C95.703,1.367 93.848,3.223 93.848,5.518C93.848,7.764 95.703,9.668 97.998,9.668ZM84.424,9.668C86.67,9.668 88.525,7.764 88.525,5.518C88.525,3.223 86.67,1.367 84.424,1.367C82.129,1.367 80.273,3.223 80.273,5.518C80.273,7.764 82.129,9.668 84.424,9.668ZM70.898,9.668C73.144,9.668 75.049,7.764 75.049,5.518C75.049,3.223 73.144,1.367 70.898,1.367C68.604,1.367 66.748,3.223 66.748,5.518C66.748,7.764 68.604,9.668 70.898,9.668ZM57.275,9.668C59.57,9.668 61.426,7.764 61.426,5.518C61.426,3.223 59.57,1.367 57.275,1.367C55.029,1.367 53.125,3.223 53.125,5.518C53.125,7.764 55.029,9.668 57.275,9.668ZM43.701,9.668C45.996,9.668 47.852,7.764 47.852,5.518C47.852,3.223 45.996,1.367 43.701,1.367C41.406,1.367 39.551,3.223 39.551,5.518C39.551,7.764 41.406,9.668 43.701,9.668ZM30.176,9.668C32.471,9.668 34.326,7.764 34.326,5.518C34.326,3.223 32.471,1.367 30.176,1.367C27.881,1.367 26.025,3.223 26.025,5.518C26.025,7.764 27.881,9.668 30.176,9.668ZM16.602,9.668C18.897,9.668 20.752,7.764 20.752,5.518C20.752,3.223 18.897,1.367 16.602,1.367C14.307,1.367 12.451,3.223 12.451,5.518C12.451,7.764 14.307,9.668 16.602,9.668Z" style="fill:rgb(226,181,1);fill-rule:nonzero;"/>
    </g>
</svg>
