<?xml version="1.0" encoding="UTF-8" standalone="no"?>
<!DOCTYPE svg PUBLIC "-//W3C//DTD SVG 1.1//EN" "http://www.w3.org/Graphics/SVG/1.1/DTD/svg11.dtd">
<svg width="100%" height="100%" viewBox="0 0 132 91" version="1.1" xmlns="http://www.w3.org/2000/svg" xmlns:xlink="http://www.w3.org/1999/xlink" xml:space="preserve" xmlns:serif="http://www.serif.com/" style="fill-rule:evenodd;clip-rule:evenodd;stroke-linejoin:round;stroke-miterlimit:2;">
    <g id="Regular-M" transform="matrix(1,0,0,1,-12.4512,81.7871)">
        <path d="M118.945,-32.178C132.373,-32.178 143.75,-43.408 143.75,-56.982C143.75,-70.557 132.52,-81.787 118.945,-81.787C105.322,-81.787 94.141,-70.557 94.141,-56.982C94.141,-43.311 105.322,-32.178 118.945,-32.178ZM12.451,-52.441L88.232,-52.441C88.037,-53.711 87.842,-55.029 87.842,-56.445C87.842,-61.377 89.014,-66.699 91.309,-71.289L61.133,-71.289C57.813,-71.289 55.811,-72.07 53.369,-74.17L50.391,-76.611C47.168,-79.346 44.678,-80.225 39.844,-80.225L25.928,-80.225C17.383,-80.225 12.451,-75.342 12.451,-65.527L12.451,-52.441ZM118.945,-40.869C117.236,-40.869 115.771,-42.041 115.771,-43.848L115.771,-54.004L106.396,-54.004C104.785,-54.004 103.418,-55.371 103.418,-56.982C103.418,-58.594 104.785,-59.961 106.396,-59.961L115.771,-59.961L115.771,-70.068C115.771,-71.924 117.236,-73.096 118.945,-73.096C120.654,-73.096 122.119,-71.924 122.119,-70.068L122.119,-59.961L131.494,-59.961C133.105,-59.961 134.473,-58.594 134.473,-56.982C134.473,-55.371 133.105,-54.004 131.494,-54.004L122.119,-54.004L122.119,-43.848C122.119,-42.041 120.654,-40.869 118.945,-40.869ZM27.783,9.131L109.473,9.131C118.213,9.131 123.34,4.053 123.34,-6.006L123.34,-25.684C122.07,-25.537 120.85,-25.488 119.629,-25.488C106.152,-25.488 94.482,-33.496 89.795,-46.045L12.451,-46.045L12.451,-6.006C12.451,4.102 17.578,9.131 27.783,9.131Z" style="fill:rgb(191,191,191);fill-rule:nonzero;"/>
    </g>
</svg>
