<?xml version="1.0" encoding="UTF-8" standalone="no"?>
<!DOCTYPE svg PUBLIC "-//W3C//DTD SVG 1.1//EN" "http://www.w3.org/Graphics/SVG/1.1/DTD/svg11.dtd">
<svg width="100%" height="100%" viewBox="0 0 88 114" version="1.1" xmlns="http://www.w3.org/2000/svg" xmlns:xlink="http://www.w3.org/1999/xlink" xml:space="preserve" xmlns:serif="http://www.serif.com/" style="fill-rule:evenodd;clip-rule:evenodd;stroke-linejoin:round;stroke-miterlimit:2;">
    <g id="Regular-M" transform="matrix(1,0,0,1,-7.50114,94.3848)">
        <path d="M56.006,-94.385C43.506,-94.385 33.35,-89.844 26.758,-81.934L80.859,-27.783C85.791,-35.156 93.506,-43.213 93.506,-57.324C93.506,-79.541 78.516,-94.385 56.006,-94.385ZM88.525,-1.123C90.039,0.391 92.383,0.342 93.848,-1.123C95.313,-2.588 95.313,-4.98 93.848,-6.445L13.916,-86.475C12.402,-87.94 9.961,-87.891 8.545,-86.475C7.129,-85.01 7.178,-82.519 8.545,-81.152L88.525,-1.123ZM38.33,-6.25L69.141,-6.25C70.019,-6.25 70.557,-6.738 70.557,-7.617L70.557,-10.889L19.043,-62.402C18.652,-60.84 18.457,-59.131 18.457,-57.324C18.457,-36.231 35.645,-28.613 35.645,-16.797L35.645,-8.984C35.645,-7.324 36.67,-6.25 38.33,-6.25ZM40.137,6.934L71.875,6.934C74.365,6.934 76.367,4.883 76.367,2.344C76.367,-0.195 74.365,-2.246 71.875,-2.246L40.137,-2.246C37.647,-2.246 35.645,-0.195 35.645,2.344C35.645,4.883 37.647,6.934 40.137,6.934ZM56.006,18.701C62.744,18.701 67.481,15.625 67.969,10.889L44.043,10.889C44.434,15.625 49.219,18.701 56.006,18.701Z" style="fill:rgb(191,191,191);fill-rule:nonzero;"/>
    </g>
</svg>
