<?xml version="1.0" encoding="UTF-8" standalone="no"?>
<!DOCTYPE svg PUBLIC "-//W3C//DTD SVG 1.1//EN" "http://www.w3.org/Graphics/SVG/1.1/DTD/svg11.dtd">
<svg width="100%" height="100%" viewBox="0 0 87 75" version="1.1" xmlns="http://www.w3.org/2000/svg" xmlns:xlink="http://www.w3.org/1999/xlink" xml:space="preserve" xmlns:serif="http://www.serif.com/" style="fill-rule:evenodd;clip-rule:evenodd;stroke-linejoin:round;stroke-miterlimit:2;">
    <g id="Regular-M" transform="matrix(1,0,0,1,-12.4512,73.3398)">
        <path d="M21.191,-3.174L21.191,-35.156C21.387,-34.326 21.875,-33.545 22.559,-32.861L54.932,-0.586C55.957,0.391 56.982,0.83 58.203,0.83C60.596,0.83 62.5,-0.928 62.5,-3.369C62.5,-4.541 62.06,-5.713 61.231,-6.543L50.44,-17.481L34.375,-32.129L44.873,-31.787L94.19,-31.787C96.729,-31.787 98.486,-33.594 98.486,-36.133C98.486,-38.721 96.729,-40.527 94.19,-40.527L44.873,-40.527L34.424,-40.137L50.44,-54.834L61.231,-65.82C62.06,-66.602 62.5,-67.773 62.5,-68.945C62.5,-71.387 60.596,-73.193 58.203,-73.193C56.982,-73.193 55.957,-72.705 54.932,-71.729L22.559,-39.453C21.875,-38.77 21.387,-37.988 21.191,-37.158L21.191,-69.043C21.191,-71.582 19.385,-73.34 16.797,-73.34C14.258,-73.34 12.451,-71.582 12.451,-69.043L12.451,-3.174C12.451,-0.684 14.258,1.025 16.797,1.025C19.385,1.025 21.191,-0.684 21.191,-3.174Z" style="fill:rgb(191,191,191);fill-rule:nonzero;"/>
    </g>
</svg>
