<?xml version="1.0" encoding="UTF-8" standalone="no"?>
<!DOCTYPE svg PUBLIC "-//W3C//DTD SVG 1.1//EN" "http://www.w3.org/Graphics/SVG/1.1/DTD/svg11.dtd">
<svg width="100%" height="100%" viewBox="0 0 101 94" version="1.1" xmlns="http://www.w3.org/2000/svg" xmlns:xlink="http://www.w3.org/1999/xlink" xml:space="preserve" xmlns:serif="http://www.serif.com/" style="fill-rule:evenodd;clip-rule:evenodd;stroke-linejoin:round;stroke-miterlimit:2;">
    <g id="Regular-M" transform="matrix(1,0,0,1,-8.74023,83.9844)">
        <path d="M41.211,-54.834C49.219,-54.834 55.811,-61.475 55.811,-69.385C55.811,-77.344 49.219,-83.984 41.211,-83.984C33.252,-83.984 26.66,-77.344 26.66,-69.385C26.66,-61.523 33.203,-54.834 41.211,-54.834ZM77.051,-54.834C85.01,-54.834 91.602,-61.475 91.602,-69.385C91.602,-77.344 85.01,-83.984 77.051,-83.984C69.043,-83.984 62.451,-77.344 62.451,-69.385C62.451,-61.475 69.043,-54.834 77.051,-54.834ZM59.131,-22.705C67.09,-22.705 73.731,-29.346 73.731,-37.305C73.731,-45.264 67.09,-51.904 59.131,-51.904C51.172,-51.904 44.531,-45.264 44.531,-37.305C44.531,-29.346 51.172,-22.705 59.131,-22.705ZM23.34,-22.705C31.299,-22.705 37.94,-29.346 37.94,-37.305C37.94,-45.264 31.299,-51.904 23.34,-51.904C15.381,-51.904 8.74,-45.264 8.74,-37.305C8.74,-29.395 15.283,-22.705 23.34,-22.705ZM94.922,-22.705C102.881,-22.705 109.521,-29.346 109.521,-37.305C109.521,-45.264 102.881,-51.904 94.922,-51.904C86.963,-51.904 80.322,-45.264 80.322,-37.305C80.322,-29.346 86.963,-22.705 94.922,-22.705ZM41.211,9.326C49.219,9.326 55.811,2.734 55.811,-5.273C55.811,-13.184 49.219,-19.775 41.211,-19.775C33.252,-19.775 26.66,-13.184 26.66,-5.273C26.66,2.637 33.203,9.326 41.211,9.326ZM77.051,9.326C85.01,9.326 91.602,2.734 91.602,-5.273C91.602,-13.184 85.01,-19.775 77.051,-19.775C69.043,-19.775 62.451,-13.184 62.451,-5.273C62.451,2.734 69.043,9.326 77.051,9.326Z" style="fill:rgb(191,191,191);fill-rule:nonzero;"/>
    </g>
</svg>
