<?xml version="1.0" encoding="UTF-8" standalone="no"?>
<!DOCTYPE svg PUBLIC "-//W3C//DTD SVG 1.1//EN" "http://www.w3.org/Graphics/SVG/1.1/DTD/svg11.dtd">
<svg width="100%" height="100%" viewBox="0 0 102 102" version="1.1" xmlns="http://www.w3.org/2000/svg" xmlns:xlink="http://www.w3.org/1999/xlink" xml:space="preserve" xmlns:serif="http://www.serif.com/" style="fill-rule:evenodd;clip-rule:evenodd;stroke-linejoin:round;stroke-miterlimit:2;">
    <g id="Regular-M" transform="matrix(1,0,0,1,-11.2305,84.7046)">
        <path d="M87.793,-33.496L89.16,-35.01C91.553,-37.5 91.699,-40.43 89.111,-42.969L87.647,-44.385C95.117,-51.074 103.418,-52.002 108.545,-57.227C115.82,-64.551 113.477,-74.805 108.35,-79.932C103.271,-85.107 93.115,-87.305 85.644,-80.127C80.371,-75.049 79.492,-66.699 72.803,-59.228L71.387,-60.693C68.897,-63.232 65.918,-63.135 63.428,-60.742L61.963,-59.375C58.935,-56.494 59.522,-53.955 62.06,-51.367L64.16,-49.316L27.246,-12.402C12.158,2.686 19.434,0.342 11.23,11.914L15.625,16.553C26.807,8.398 25.293,16.406 40.625,1.123L77.686,-35.742L79.785,-33.643C82.373,-31.055 84.961,-30.518 87.793,-33.496ZM63.477,-34.863C61.67,-36.816 62.06,-38.574 64.014,-40.576L68.359,-45.068L73.633,-39.795L69.141,-35.303C67.383,-33.594 65.186,-33.057 63.477,-34.863Z" style="fill:rgb(0,232,255);fill-rule:nonzero;"/>
    </g>
</svg>
