<?xml version="1.0" encoding="UTF-8" standalone="no"?>
<!DOCTYPE svg PUBLIC "-//W3C//DTD SVG 1.1//EN" "http://www.w3.org/Graphics/SVG/1.1/DTD/svg11.dtd">
<svg width="100%" height="100%" viewBox="0 0 106 90" version="1.1" xmlns="http://www.w3.org/2000/svg" xmlns:xlink="http://www.w3.org/1999/xlink" xml:space="preserve" xmlns:serif="http://www.serif.com/" style="fill-rule:evenodd;clip-rule:evenodd;stroke-linejoin:round;stroke-miterlimit:2;">
    <g id="Regular-M" transform="matrix(1,0,0,1,-7.12891,80.0293)">
        <path d="M54.834,9.521C58.154,9.521 60.547,7.08 60.547,3.809L60.547,-14.844L61.963,-14.844C80.908,-14.844 92.822,-10.059 101.367,5.908C103.076,9.033 105.322,9.521 107.373,9.521C109.961,9.521 112.402,7.178 112.402,2.979C112.402,-33.106 97.119,-55.615 61.963,-55.615L60.547,-55.615L60.547,-74.072C60.547,-77.344 58.154,-80.029 54.736,-80.029C52.344,-80.029 50.732,-79.004 48.145,-76.563L9.619,-40.527C7.715,-38.721 7.129,-36.914 7.129,-35.254C7.129,-33.643 7.764,-31.787 9.619,-30.029L48.145,6.348C50.488,8.545 52.441,9.521 54.834,9.521Z" style="fill:rgb(226,181,1);fill-rule:nonzero;"/>
    </g>
</svg>
