<?xml version="1.0" encoding="UTF-8" standalone="no"?>
<!DOCTYPE svg PUBLIC "-//W3C//DTD SVG 1.1//EN" "http://www.w3.org/Graphics/SVG/1.1/DTD/svg11.dtd">
<svg width="100%" height="100%" viewBox="0 0 116 90" version="1.1" xmlns="http://www.w3.org/2000/svg" xmlns:xlink="http://www.w3.org/1999/xlink" xml:space="preserve" xmlns:serif="http://www.serif.com/" style="fill-rule:evenodd;clip-rule:evenodd;stroke-linejoin:round;stroke-miterlimit:2;">
    <g id="Regular-M" transform="matrix(1,0,0,1,-12.4512,80.127)">
        <path d="M27.783,9.766L112.256,9.766C122.51,9.766 127.588,4.688 127.588,-5.371L127.588,-64.99C127.588,-75.049 122.51,-80.127 112.256,-80.127L27.783,-80.127C17.578,-80.127 12.451,-75.098 12.451,-64.99L12.451,-5.371C12.451,4.736 17.578,9.766 27.783,9.766ZM20.313,-35.156L40.137,-35.156L40.137,-53.76L20.313,-53.76L20.313,-64.6C20.313,-69.678 22.998,-72.266 27.881,-72.266L40.137,-72.266L40.137,-53.76L60.156,-53.76L60.156,-72.266L79.883,-72.266L79.883,-53.76L99.902,-53.76L99.902,-72.266L112.158,-72.266C116.992,-72.266 119.727,-69.678 119.727,-64.6L119.727,-53.76L99.902,-53.76L99.902,-35.156L119.727,-35.156L119.727,-16.699L99.902,-16.699L99.902,1.904L40.137,1.904L40.137,-16.699L20.313,-16.699L20.313,-35.156ZM60.156,-35.156L79.883,-35.156L79.883,-53.76L60.156,-53.76L60.156,-35.156ZM40.137,-16.699L60.156,-16.699L60.156,-35.156L40.137,-35.156L40.137,-16.699ZM79.883,-16.699L99.902,-16.699L99.902,-35.156L79.883,-35.156L79.883,-16.699ZM60.156,1.904L79.883,1.904L79.883,-16.699L60.156,-16.699L60.156,1.904Z" style="fill:rgb(226,181,1);fill-rule:nonzero;"/>
    </g>
</svg>
