<?xml version="1.0" encoding="UTF-8" standalone="no"?>
<!DOCTYPE svg PUBLIC "-//W3C//DTD SVG 1.1//EN" "http://www.w3.org/Graphics/SVG/1.1/DTD/svg11.dtd">
<svg width="100%" height="100%" viewBox="0 0 114 88" version="1.1" xmlns="http://www.w3.org/2000/svg" xmlns:xlink="http://www.w3.org/1999/xlink" xml:space="preserve" xmlns:serif="http://www.serif.com/" style="fill-rule:evenodd;clip-rule:evenodd;stroke-linejoin:round;stroke-miterlimit:2;">
    <g id="Regular-M" transform="matrix(1,0,0,1,-12.4512,79.1992)">
        <path d="M27.539,-16.406L110.498,-16.406C120.605,-16.406 125.586,-21.338 125.586,-31.299L125.586,-64.307C125.586,-74.316 120.605,-79.199 110.498,-79.199L27.539,-79.199C17.481,-79.199 12.451,-74.316 12.451,-64.307L12.451,-31.299C12.451,-21.338 17.481,-16.406 27.539,-16.406ZM27.637,-24.268C22.852,-24.268 20.313,-26.709 20.313,-31.69L20.313,-63.916C20.313,-68.897 22.852,-71.387 27.637,-71.387L110.4,-71.387C115.186,-71.387 117.725,-68.897 117.725,-63.916L117.725,-31.69C117.725,-26.709 115.186,-24.268 110.4,-24.268L27.637,-24.268ZM17.334,8.35L27.637,8.35C29.053,8.35 30.176,7.275 30.176,5.859L30.176,-4.346C30.176,-5.859 29.102,-6.934 27.637,-6.934L17.334,-6.934C15.772,-6.934 14.746,-5.859 14.746,-4.346L14.746,5.859C14.746,7.275 15.82,8.35 17.334,8.35ZM40.625,8.35L50.928,8.35C52.344,8.35 53.467,7.275 53.467,5.859L53.467,-4.346C53.467,-5.859 52.393,-6.934 50.928,-6.934L40.625,-6.934C39.063,-6.934 38.037,-5.859 38.037,-4.346L38.037,5.859C38.037,7.275 39.111,8.35 40.625,8.35ZM63.916,8.35L74.219,8.35C75.635,8.35 76.758,7.275 76.758,5.859L76.758,-4.346C76.758,-5.859 75.684,-6.934 74.219,-6.934L63.916,-6.934C62.353,-6.934 61.328,-5.859 61.328,-4.346L61.328,5.859C61.328,7.275 62.402,8.35 63.916,8.35ZM87.207,8.35L97.51,8.35C98.926,8.35 100.049,7.275 100.049,5.859L100.049,-4.346C100.049,-5.859 98.975,-6.934 97.51,-6.934L87.207,-6.934C85.644,-6.934 84.619,-5.859 84.619,-4.346L84.619,5.859C84.619,7.275 85.693,8.35 87.207,8.35ZM110.498,8.35L120.801,8.35C122.217,8.35 123.34,7.275 123.34,5.859L123.34,-4.346C123.34,-5.859 122.266,-6.934 120.801,-6.934L110.498,-6.934C108.936,-6.934 107.91,-5.859 107.91,-4.346L107.91,5.859C107.91,7.275 108.984,8.35 110.498,8.35Z" style="fill:rgb(226,181,1);fill-rule:nonzero;"/>
    </g>
</svg>
