<?xml version="1.0" encoding="UTF-8" standalone="no"?>
<!DOCTYPE svg PUBLIC "-//W3C//DTD SVG 1.1//EN" "http://www.w3.org/Graphics/SVG/1.1/DTD/svg11.dtd">
<svg width="100%" height="100%" viewBox="0 0 106 90" version="1.1" xmlns="http://www.w3.org/2000/svg" xmlns:xlink="http://www.w3.org/1999/xlink" xml:space="preserve" xmlns:serif="http://www.serif.com/" style="fill-rule:evenodd;clip-rule:evenodd;stroke-linejoin:round;stroke-miterlimit:2;">
    <g id="Regular-M" transform="matrix(1,0,0,1,-11.5723,80.0293)">
        <path d="M69.141,9.521C71.533,9.521 73.486,8.545 75.83,6.348L114.355,-30.029C116.211,-31.787 116.846,-33.643 116.846,-35.254C116.846,-36.914 116.26,-38.721 114.355,-40.527L75.83,-76.563C73.242,-79.004 71.631,-80.029 69.238,-80.029C65.82,-80.029 63.379,-77.344 63.379,-74.072L63.379,-55.615L61.963,-55.615C26.856,-55.615 11.572,-33.106 11.572,2.979C11.572,7.178 13.965,9.521 16.602,9.521C18.652,9.521 20.898,9.033 22.607,5.908C31.104,-10.059 43.066,-14.844 61.963,-14.844L63.379,-14.844L63.379,3.809C63.379,7.08 65.82,9.521 69.141,9.521Z" style="fill:rgb(226,181,1);fill-rule:nonzero;"/>
    </g>
</svg>
