<?xml version="1.0" encoding="UTF-8" standalone="no"?>
<!DOCTYPE svg PUBLIC "-//W3C//DTD SVG 1.1//EN" "http://www.w3.org/Graphics/SVG/1.1/DTD/svg11.dtd">
<svg width="100%" height="100%" viewBox="0 0 76 114" version="1.1" xmlns="http://www.w3.org/2000/svg" xmlns:xlink="http://www.w3.org/1999/xlink" xml:space="preserve" xmlns:serif="http://www.serif.com/" style="fill-rule:evenodd;clip-rule:evenodd;stroke-linejoin:round;stroke-miterlimit:2;">
    <g id="Regular-M" transform="matrix(1,0,0,1,-19.3848,90.625)">
        <path d="M19.385,-20.166C19.385,-16.016 22.168,-13.281 26.563,-13.281L52.978,-13.281L52.978,9.521C52.978,16.992 56.103,23.193 57.324,23.193C58.496,23.193 61.621,16.992 61.621,9.521L61.621,-13.281L88.037,-13.281C92.432,-13.281 95.215,-16.016 95.215,-20.166C95.215,-30.469 86.963,-41.357 73.242,-46.338L71.631,-68.75C78.76,-72.803 84.619,-77.393 87.158,-80.664C88.428,-82.324 89.063,-83.984 89.063,-85.449C89.063,-88.428 86.768,-90.625 83.35,-90.625L31.299,-90.625C27.832,-90.625 25.586,-88.428 25.586,-85.449C25.586,-83.984 26.172,-82.324 27.441,-80.664C29.981,-77.393 35.84,-72.803 42.969,-68.75L41.357,-46.338C27.637,-41.357 19.385,-30.469 19.385,-20.166Z" style="fill-rule:nonzero;"/>
    </g>
</svg>
