<?xml version="1.0" encoding="UTF-8" standalone="no"?>
<!DOCTYPE svg PUBLIC "-//W3C//DTD SVG 1.1//EN" "http://www.w3.org/Graphics/SVG/1.1/DTD/svg11.dtd">
<svg width="100%" height="100%" viewBox="0 0 100 100" version="1.1" xmlns="http://www.w3.org/2000/svg" xmlns:xlink="http://www.w3.org/1999/xlink" xml:space="preserve" xmlns:serif="http://www.serif.com/" style="fill-rule:evenodd;clip-rule:evenodd;stroke-linejoin:round;stroke-miterlimit:2;">
    <g id="Regular-M" transform="matrix(1,0,0,1,-8.74023,85.0586)">
        <path d="M58.545,14.551C85.791,14.551 108.35,-8.057 108.35,-35.254C108.35,-62.5 85.742,-85.059 58.496,-85.059C31.299,-85.059 8.74,-62.5 8.74,-35.254C8.74,-8.057 31.348,14.551 58.545,14.551ZM42.676,-47.754C44.922,-47.754 46.387,-46.24 46.387,-43.799L46.387,-35.156L45.654,-27.295L52.93,-35.059L71.338,-53.516C72.07,-54.248 73.047,-54.688 74.268,-54.688C76.465,-54.688 77.979,-53.223 77.979,-50.928C77.979,-49.951 77.49,-48.926 76.758,-48.193L58.252,-29.785L50.391,-22.412L57.861,-23.193L66.943,-23.193C69.385,-23.193 70.947,-21.729 70.947,-19.531C70.947,-17.285 69.434,-15.82 67.041,-15.82L43.213,-15.82C40.625,-15.82 38.965,-16.992 38.965,-19.971L38.965,-43.701C38.965,-46.094 40.478,-47.754 42.676,-47.754Z" style="fill:rgb(0,232,255);fill-rule:nonzero;"/>
    </g>
</svg>
