<?xml version="1.0" encoding="UTF-8" standalone="no"?>
<!DOCTYPE svg PUBLIC "-//W3C//DTD SVG 1.1//EN" "http://www.w3.org/Graphics/SVG/1.1/DTD/svg11.dtd">
<svg width="100%" height="100%" viewBox="0 0 100 102" version="1.1" xmlns="http://www.w3.org/2000/svg" xmlns:xlink="http://www.w3.org/1999/xlink" xml:space="preserve" xmlns:serif="http://www.serif.com/" style="fill-rule:evenodd;clip-rule:evenodd;stroke-linejoin:round;stroke-miterlimit:2;">
    <g id="Regular-M" transform="matrix(1,0,0,1,-12.4512,85.1074)">
        <path d="M68.555,14.844L106.738,-7.373C110.693,-9.668 112.256,-11.426 112.256,-14.111C112.256,-16.797 110.693,-18.555 106.738,-20.898L83.936,-34.131L106.738,-47.363C110.693,-49.707 112.256,-51.465 112.256,-54.15C112.256,-56.836 110.693,-58.594 106.738,-60.889L68.555,-83.106C66.211,-84.473 64.307,-85.107 62.353,-85.107C60.352,-85.107 58.496,-84.473 56.152,-83.106L17.92,-60.889C13.965,-58.594 12.451,-56.836 12.451,-54.15C12.451,-51.465 13.965,-49.707 17.92,-47.363L40.772,-34.131L17.92,-20.898C13.965,-18.555 12.451,-16.797 12.451,-14.111C12.451,-11.426 13.965,-9.668 17.92,-7.373L56.152,14.844C58.496,16.211 60.352,16.846 62.353,16.846C64.307,16.846 66.211,16.211 68.555,14.844ZM62.353,-23.193C64.307,-23.193 66.211,-23.828 68.555,-25.195L75.781,-29.395L101.66,-14.6C101.904,-14.502 102.051,-14.355 102.051,-14.111C102.051,-13.867 101.904,-13.77 101.66,-13.623L64.502,7.617C63.721,8.057 63.037,8.301 62.353,8.301C61.67,8.301 60.986,8.057 60.156,7.617L22.998,-13.623C22.803,-13.77 22.656,-13.867 22.656,-14.111C22.656,-14.355 22.803,-14.502 22.998,-14.6L48.877,-29.395L56.152,-25.195C58.496,-23.828 60.352,-23.193 62.353,-23.193Z" style="fill:rgb(191,191,191);fill-rule:nonzero;"/>
    </g>
</svg>
