<?xml version="1.0" encoding="UTF-8" standalone="no"?>
<!DOCTYPE svg PUBLIC "-//W3C//DTD SVG 1.1//EN" "http://www.w3.org/Graphics/SVG/1.1/DTD/svg11.dtd">
<svg width="100%" height="100%" viewBox="0 0 100 109" version="1.1" xmlns="http://www.w3.org/2000/svg" xmlns:xlink="http://www.w3.org/1999/xlink" xml:space="preserve" xmlns:serif="http://www.serif.com/" style="fill-rule:evenodd;clip-rule:evenodd;stroke-linejoin:round;stroke-miterlimit:2;">
    <g id="Regular-M" transform="matrix(1,0,0,1,-12.1582,88.3301)">
        <path d="M62.109,-26.465C64.063,-26.465 65.967,-27.1 68.311,-28.467L106.494,-50.635C110.449,-52.93 111.963,-54.736 111.963,-57.422C111.963,-60.059 110.449,-61.865 106.494,-64.16L68.311,-86.328C65.967,-87.695 64.063,-88.33 62.109,-88.33C60.107,-88.33 58.252,-87.695 55.859,-86.328L17.676,-64.16C13.721,-61.865 12.207,-60.059 12.207,-57.422C12.207,-54.736 13.721,-52.93 17.676,-50.635L55.859,-28.467C58.252,-27.1 60.107,-26.465 62.109,-26.465ZM62.109,-2.393C63.867,-2.393 65.381,-3.223 67.432,-4.443L109.375,-29.199C111.182,-30.322 112.012,-31.934 112.012,-33.447C112.012,-35.449 110.547,-37.109 109.18,-37.744L63.965,-11.621C63.232,-11.23 62.647,-10.938 62.109,-10.938C61.523,-10.938 60.938,-11.23 60.205,-11.621L14.99,-37.744C13.623,-37.109 12.158,-35.449 12.158,-33.447C12.158,-31.934 13.037,-30.273 14.844,-29.199L56.738,-4.443C58.838,-3.223 60.303,-2.393 62.109,-2.393ZM62.109,20.068C63.867,20.068 65.381,19.238 67.432,18.018L109.375,-6.738C111.133,-7.764 112.012,-9.473 112.012,-10.986C112.012,-12.988 110.547,-14.6 109.18,-15.283L63.965,10.889C63.232,11.279 62.647,11.572 62.109,11.572C61.523,11.572 60.938,11.279 60.205,10.889L14.99,-15.283C13.623,-14.6 12.158,-12.988 12.158,-10.986C12.158,-9.473 13.037,-7.764 14.844,-6.738L56.738,18.018C58.838,19.238 60.303,20.068 62.109,20.068Z" style="fill:rgb(226,181,1);fill-rule:nonzero;"/>
    </g>
</svg>
