<?xml version="1.0" encoding="UTF-8" standalone="no"?>
<!DOCTYPE svg PUBLIC "-//W3C//DTD SVG 1.1//EN" "http://www.w3.org/Graphics/SVG/1.1/DTD/svg11.dtd">
<svg width="100%" height="100%" viewBox="0 0 100 109" version="1.1" xmlns="http://www.w3.org/2000/svg" xmlns:xlink="http://www.w3.org/1999/xlink" xml:space="preserve" xmlns:serif="http://www.serif.com/" style="fill-rule:evenodd;clip-rule:evenodd;stroke-linejoin:round;stroke-miterlimit:2;">
    <g id="Regular-M" transform="matrix(1,0,0,1,-12.4512,88.3301)">
        <path d="M68.555,18.066L106.738,-4.102C110.693,-6.396 112.256,-8.203 112.256,-10.889C112.256,-13.525 110.693,-15.332 106.738,-17.627L99.072,-22.119L106.738,-26.611C110.693,-28.906 112.256,-30.664 112.256,-33.35C112.256,-36.035 110.693,-37.793 106.738,-40.137L97.705,-45.361L106.738,-50.635C110.693,-52.93 112.256,-54.736 112.256,-57.422C112.256,-60.059 110.693,-61.865 106.738,-64.16L68.555,-86.328C66.211,-87.695 64.307,-88.33 62.353,-88.33C60.352,-88.33 58.496,-87.695 56.152,-86.328L17.92,-64.16C13.965,-61.865 12.451,-60.059 12.451,-57.422C12.451,-54.736 13.965,-52.93 17.92,-50.635L27.002,-45.361L17.92,-40.137C13.965,-37.793 12.451,-36.035 12.451,-33.35C12.451,-30.664 13.965,-28.906 17.92,-26.611L25.684,-22.119L17.92,-17.627C13.965,-15.332 12.451,-13.525 12.451,-10.889C12.451,-8.203 13.965,-6.396 17.92,-4.102L56.152,18.066C58.496,19.434 60.352,20.068 62.353,20.068C64.307,20.068 66.211,19.434 68.555,18.066ZM62.353,-26.465C64.307,-26.465 66.211,-27.1 68.555,-28.467L89.648,-40.723L101.66,-33.838C101.904,-33.74 102.051,-33.594 102.051,-33.35C102.051,-33.106 101.904,-33.008 101.66,-32.861L64.502,-11.621C63.721,-11.182 63.037,-10.938 62.353,-10.938C61.67,-10.938 60.986,-11.182 60.156,-11.621L22.998,-32.861C22.803,-33.008 22.656,-33.106 22.656,-33.35C22.656,-33.594 22.803,-33.74 22.998,-33.838L35.01,-40.723L56.152,-28.467C58.496,-27.1 60.352,-26.465 62.353,-26.465ZM60.156,10.889L22.998,-10.4C22.803,-10.498 22.656,-10.645 22.656,-10.889C22.656,-11.084 22.803,-11.23 22.998,-11.328L33.691,-17.432L56.152,-4.395C58.496,-3.027 60.352,-2.393 62.353,-2.393C64.307,-2.393 66.211,-3.027 68.555,-4.395L90.967,-17.432L101.66,-11.328C101.904,-11.23 102.051,-11.084 102.051,-10.889C102.051,-10.645 101.904,-10.498 101.66,-10.4L64.502,10.889C63.721,11.328 63.037,11.572 62.353,11.572C61.67,11.572 60.986,11.328 60.156,10.889Z" style="fill:rgb(191,191,191);fill-rule:nonzero;"/>
    </g>
</svg>
