<?xml version="1.0" encoding="UTF-8" standalone="no"?>
<!DOCTYPE svg PUBLIC "-//W3C//DTD SVG 1.1//EN" "http://www.w3.org/Graphics/SVG/1.1/DTD/svg11.dtd">
<svg width="100%" height="100%" viewBox="0 0 100 100" version="1.1" xmlns="http://www.w3.org/2000/svg" xmlns:xlink="http://www.w3.org/1999/xlink" xml:space="preserve" xmlns:serif="http://www.serif.com/" style="fill-rule:evenodd;clip-rule:evenodd;stroke-linejoin:round;stroke-miterlimit:2;">
    <g id="Regular-M" transform="matrix(1,0,0,1,-8.74023,85.0586)">
        <path d="M58.545,14.551C85.791,14.551 108.35,-8.057 108.35,-35.254C108.35,-62.5 85.742,-85.059 58.496,-85.059C31.299,-85.059 8.74,-62.5 8.74,-35.254C8.74,-8.057 31.348,14.551 58.545,14.551ZM35.01,-27.93C30.957,-27.93 27.637,-31.201 27.637,-35.303C27.637,-39.356 30.957,-42.627 35.01,-42.627C39.014,-42.627 42.334,-39.356 42.334,-35.303C42.334,-31.201 39.063,-27.93 35.01,-27.93ZM58.496,-27.93C54.443,-27.93 51.123,-31.201 51.123,-35.303C51.123,-39.356 54.443,-42.627 58.496,-42.627C62.549,-42.627 65.869,-39.356 65.869,-35.303C65.869,-31.201 62.549,-27.93 58.496,-27.93ZM82.031,-27.93C77.93,-27.93 74.658,-31.201 74.658,-35.303C74.658,-39.356 77.93,-42.627 82.031,-42.627C86.035,-42.627 89.356,-39.356 89.356,-35.303C89.356,-31.201 86.035,-27.93 82.031,-27.93Z" style="fill:rgb(191,191,191);fill-rule:nonzero;"/>
    </g>
</svg>
