<?xml version="1.0" encoding="UTF-8" standalone="no"?>
<!DOCTYPE svg PUBLIC "-//W3C//DTD SVG 1.1//EN" "http://www.w3.org/Graphics/SVG/1.1/DTD/svg11.dtd">
<svg width="100%" height="100%" viewBox="0 0 100 100" version="1.1" xmlns="http://www.w3.org/2000/svg" xmlns:xlink="http://www.w3.org/1999/xlink" xml:space="preserve" xmlns:serif="http://www.serif.com/" style="fill-rule:evenodd;clip-rule:evenodd;stroke-linejoin:round;stroke-miterlimit:2;">
    <g id="Regular-M" transform="matrix(1,0,0,1,-8.74023,85.0586)">
        <path d="M58.545,14.551C85.791,14.551 108.35,-8.057 108.35,-35.254C108.35,-62.5 85.742,-85.059 58.496,-85.059C31.299,-85.059 8.74,-62.5 8.74,-35.254C8.74,-8.057 31.348,14.551 58.545,14.551ZM74.268,-22.754C72.022,-22.754 70.557,-24.316 70.557,-26.709L70.557,-35.352L71.289,-43.213L64.014,-35.449L45.606,-16.992C44.824,-16.26 43.897,-15.82 42.676,-15.82C40.478,-15.82 38.965,-17.285 38.965,-19.58C38.965,-20.557 39.453,-21.582 40.186,-22.315L58.691,-40.772L66.553,-48.096L59.082,-47.315L50,-47.315C47.559,-47.315 45.996,-48.779 45.996,-50.977C45.996,-53.223 47.51,-54.688 49.902,-54.688L73.731,-54.688C76.318,-54.688 77.979,-53.516 77.979,-50.537L77.979,-26.807C77.979,-24.463 76.465,-22.754 74.268,-22.754Z" style="fill:rgb(191,191,191);fill-rule:nonzero;"/>
    </g>
</svg>
