<?xml version="1.0" encoding="UTF-8" standalone="no"?>
<!DOCTYPE svg PUBLIC "-//W3C//DTD SVG 1.1//EN" "http://www.w3.org/Graphics/SVG/1.1/DTD/svg11.dtd">
<svg width="100%" height="100%" viewBox="0 0 99 84" version="1.1" xmlns="http://www.w3.org/2000/svg" xmlns:xlink="http://www.w3.org/1999/xlink" xml:space="preserve" xmlns:serif="http://www.serif.com/" style="fill-rule:evenodd;clip-rule:evenodd;stroke-linejoin:round;stroke-miterlimit:2;">
    <g id="Regular-M" transform="matrix(1,0,0,1,-12.4512,76.7578)">
        <path d="M79.15,-53.272C84.229,-53.272 88.525,-56.543 90.186,-61.035L107.08,-61.035C109.082,-61.035 110.84,-62.793 110.84,-64.99C110.84,-67.188 109.082,-68.897 107.08,-68.897L90.186,-68.897C88.574,-73.438 84.229,-76.758 79.15,-76.758C74.072,-76.758 69.678,-73.438 68.066,-68.897L16.357,-68.897C14.16,-68.897 12.451,-67.188 12.451,-64.99C12.451,-62.793 14.16,-61.035 16.357,-61.035L68.115,-61.035C69.727,-56.543 74.072,-53.272 79.15,-53.272ZM79.15,-59.277C75.928,-59.277 73.438,-61.816 73.438,-65.039C73.438,-68.262 75.928,-70.752 79.15,-70.752C82.373,-70.752 84.863,-68.262 84.863,-65.039C84.863,-61.816 82.373,-59.277 79.15,-59.277ZM16.162,-39.111C14.16,-39.111 12.451,-37.353 12.451,-35.156C12.451,-32.959 14.16,-31.25 16.162,-31.25L33.643,-31.25C35.254,-26.66 39.6,-23.389 44.678,-23.389C49.756,-23.389 54.102,-26.66 55.762,-31.25L106.885,-31.25C109.082,-31.25 110.84,-32.959 110.84,-35.156C110.84,-37.353 109.082,-39.111 106.885,-39.111L55.713,-39.111C54.102,-43.603 49.756,-46.875 44.678,-46.875C39.6,-46.875 35.254,-43.603 33.643,-39.111L16.162,-39.111ZM44.678,-29.443C41.504,-29.443 38.965,-31.982 38.965,-35.156C38.965,-38.379 41.504,-40.869 44.678,-40.869C47.9,-40.869 50.391,-38.379 50.391,-35.156C50.391,-31.982 47.9,-29.443 44.678,-29.443ZM79.15,6.396C84.229,6.396 88.574,3.125 90.186,-1.416L107.08,-1.416C109.082,-1.416 110.84,-3.125 110.84,-5.322C110.84,-7.52 109.082,-9.277 107.08,-9.277L90.186,-9.277C88.574,-13.818 84.229,-17.041 79.15,-17.041C74.072,-17.041 69.727,-13.818 68.115,-9.277L16.357,-9.277C14.16,-9.277 12.451,-7.52 12.451,-5.322C12.451,-3.125 14.16,-1.416 16.357,-1.416L68.066,-1.416C69.727,3.125 74.072,6.396 79.15,6.396ZM79.15,0.391C75.928,0.391 73.438,-2.148 73.438,-5.322C73.438,-8.594 75.928,-11.035 79.15,-11.035C82.373,-11.035 84.863,-8.594 84.863,-5.322C84.863,-2.148 82.373,0.391 79.15,0.391Z" style="fill:rgb(191,191,191);fill-rule:nonzero;"/>
    </g>
</svg>
