<?xml version="1.0" encoding="UTF-8" standalone="no"?>
<!DOCTYPE svg PUBLIC "-//W3C//DTD SVG 1.1//EN" "http://www.w3.org/Graphics/SVG/1.1/DTD/svg11.dtd">
<svg width="100%" height="100%" viewBox="0 0 32 32" version="1.1" xmlns="http://www.w3.org/2000/svg" xmlns:xlink="http://www.w3.org/1999/xlink" xml:space="preserve" xmlns:serif="http://www.serif.com/" style="fill-rule:evenodd;clip-rule:evenodd;stroke-linejoin:round;stroke-miterlimit:2;">
    <path d="M27,4C18.197,4 13.799,8.795 11.686,11.1L8.637,14.176C6.936,15.875 6,18.134 6,20.539L6,22L8.027,19.973C8.159,18.317 8.863,16.776 10.047,15.592L13.16,12.451C14.996,10.449 18.729,6.378 25.975,6.023C25.753,10.545 24.086,13.697 22.377,15.875L19,17L21.418,17C20.724,17.756 20.067,18.365 19.549,18.84L18.568,19.811L15,21L17.367,21L16.41,21.947C15.088,23.269 13.331,23.998 11.461,23.998L9.416,23.998L18.707,14.707L17.293,13.293L4,26.586L5.414,28L7.416,25.998L11.461,25.998C13.865,25.998 16.125,25.061 17.828,23.357L20.898,20.313C23.203,18.202 28,13.804 28,5L28,4L27,4Z" style="fill:rgb(226,181,1);fill-rule:nonzero;"/>
</svg>
