<?xml version="1.0" encoding="UTF-8" standalone="no"?>
<!DOCTYPE svg PUBLIC "-//W3C//DTD SVG 1.1//EN" "http://www.w3.org/Graphics/SVG/1.1/DTD/svg11.dtd">
<svg width="100%" height="100%" viewBox="0 0 133 84" version="1.1" xmlns="http://www.w3.org/2000/svg" xmlns:xlink="http://www.w3.org/1999/xlink" xml:space="preserve" xmlns:serif="http://www.serif.com/" style="fill-rule:evenodd;clip-rule:evenodd;stroke-linejoin:round;stroke-miterlimit:2;">
    <g id="Regular-M" transform="matrix(1,0,0,1,-10.498,76.709)">
        <path d="M76.709,6.299C115.82,6.299 142.871,-25.342 142.871,-35.205C142.871,-45.117 115.771,-76.709 76.709,-76.709C38.086,-76.709 10.498,-45.117 10.498,-35.205C10.498,-25.342 38.086,6.299 76.709,6.299ZM76.709,-8.008C61.475,-8.008 49.414,-20.361 49.365,-35.205C49.316,-50.44 61.475,-62.402 76.709,-62.402C91.797,-62.402 104.004,-50.44 104.004,-35.205C104.004,-20.361 91.797,-8.008 76.709,-8.008ZM76.709,-25.391C82.129,-25.391 86.621,-29.834 86.621,-35.205C86.621,-40.625 82.129,-45.068 76.709,-45.068C71.24,-45.068 66.748,-40.625 66.748,-35.205C66.748,-29.834 71.24,-25.391 76.709,-25.391Z" style="fill:rgb(226,181,1);fill-rule:nonzero;"/>
    </g>
</svg>
