<?xml version="1.0" encoding="UTF-8" standalone="no"?>
<!DOCTYPE svg PUBLIC "-//W3C//DTD SVG 1.1//EN" "http://www.w3.org/Graphics/SVG/1.1/DTD/svg11.dtd">
<svg width="100%" height="100%" viewBox="0 0 100 107" version="1.1" xmlns="http://www.w3.org/2000/svg" xmlns:xlink="http://www.w3.org/1999/xlink" xml:space="preserve" xmlns:serif="http://www.serif.com/" style="fill-rule:evenodd;clip-rule:evenodd;stroke-linejoin:round;stroke-miterlimit:2;">
    <g id="Regular-M" transform="matrix(1,0,0,1,-12.4512,87.793)">
        <path d="M62.012,-37.5L108.008,-63.623C107.275,-64.356 106.396,-64.941 105.322,-65.527L70.85,-85.156C67.871,-86.865 64.893,-87.793 62.012,-87.793C59.082,-87.793 56.103,-86.865 53.125,-85.156L18.701,-65.527C17.627,-64.941 16.748,-64.356 15.967,-63.623L62.012,-37.5ZM58.643,18.457L58.643,-31.641L12.842,-57.813C12.549,-56.738 12.451,-55.566 12.451,-54.102L12.451,-16.064C12.451,-8.984 14.941,-6.348 19.434,-3.76L57.715,18.018C58.008,18.213 58.301,18.359 58.643,18.457ZM65.332,18.457C65.674,18.359 65.967,18.213 66.309,18.018L104.541,-3.76C109.082,-6.348 111.523,-8.984 111.523,-16.064L111.523,-54.102C111.523,-55.566 111.426,-56.738 111.133,-57.813L65.332,-31.641L65.332,18.457Z" style="fill:rgb(0,232,255);fill-rule:nonzero;"/>
    </g>
</svg>
