<?xml version="1.0" encoding="UTF-8" standalone="no"?>
<!DOCTYPE svg PUBLIC "-//W3C//DTD SVG 1.1//EN" "http://www.w3.org/Graphics/SVG/1.1/DTD/svg11.dtd">
<svg width="100%" height="100%" viewBox="0 0 100 100" version="1.1" xmlns="http://www.w3.org/2000/svg" xmlns:xlink="http://www.w3.org/1999/xlink" xml:space="preserve" xmlns:serif="http://www.serif.com/" style="fill-rule:evenodd;clip-rule:evenodd;stroke-linejoin:round;stroke-miterlimit:2;">
    <g id="Regular-M" transform="matrix(1,0,0,1,-8.74023,85.0586)">
        <path d="M58.545,14.551C85.791,14.551 108.35,-8.057 108.35,-35.254C108.35,-62.5 85.742,-85.059 58.496,-85.059C31.299,-85.059 8.74,-62.5 8.74,-35.254C8.74,-8.057 31.348,14.551 58.545,14.551ZM29.688,-25.342C29.688,-27.441 31.104,-28.809 33.447,-28.809L44.922,-28.809L44.922,-41.699L33.447,-41.699C31.104,-41.699 29.688,-43.066 29.688,-45.215C29.688,-47.461 31.104,-48.779 33.447,-48.779L44.922,-48.779L44.922,-60.254C44.922,-62.647 46.289,-64.014 48.535,-64.014C50.635,-64.014 52.002,-62.647 52.002,-60.254L52.002,-48.779L64.99,-48.779L64.99,-60.254C64.99,-62.647 66.309,-64.014 68.506,-64.014C70.703,-64.014 72.07,-62.647 72.07,-60.254L72.07,-48.779L83.545,-48.779C85.889,-48.779 87.305,-47.461 87.305,-45.215C87.305,-43.066 85.889,-41.699 83.545,-41.699L72.07,-41.699L72.07,-28.809L83.545,-28.809C85.889,-28.809 87.305,-27.441 87.305,-25.342C87.305,-23.096 85.889,-21.729 83.545,-21.729L72.07,-21.729L72.07,-10.254C72.07,-7.861 70.703,-6.494 68.506,-6.494C66.309,-6.494 64.99,-7.861 64.99,-10.254L64.99,-21.729L52.002,-21.729L52.002,-10.254C52.002,-7.861 50.635,-6.494 48.535,-6.494C46.289,-6.494 44.922,-7.861 44.922,-10.254L44.922,-21.729L33.447,-21.729C31.104,-21.729 29.688,-23.096 29.688,-25.342ZM52.002,-28.809L64.99,-28.809L64.99,-41.699L52.002,-41.699L52.002,-28.809Z" style="fill:rgb(191,191,191);fill-rule:nonzero;"/>
    </g>
</svg>
