<?xml version="1.0" encoding="UTF-8" standalone="no"?>
<!DOCTYPE svg PUBLIC "-//W3C//DTD SVG 1.1//EN" "http://www.w3.org/Graphics/SVG/1.1/DTD/svg11.dtd">
<svg width="100%" height="100%" viewBox="0 0 100 100" version="1.1" xmlns="http://www.w3.org/2000/svg" xmlns:xlink="http://www.w3.org/1999/xlink" xml:space="preserve" xmlns:serif="http://www.serif.com/" style="fill-rule:evenodd;clip-rule:evenodd;stroke-linejoin:round;stroke-miterlimit:2;">
    <g id="Regular-M" transform="matrix(1,0,0,1,-8.74023,85.0586)">
        <path d="M58.545,14.551C85.791,14.551 108.35,-8.008 108.35,-35.254C108.35,-62.451 85.742,-85.059 58.496,-85.059C31.299,-85.059 8.74,-62.451 8.74,-35.254C8.74,-8.008 31.348,14.551 58.545,14.551ZM33.008,-29.981C31.055,-29.981 29.59,-31.445 29.59,-33.398C29.59,-35.303 31.055,-36.768 33.008,-36.768L55.127,-36.768L55.127,-66.309C55.127,-68.213 56.592,-69.678 58.496,-69.678C60.4,-69.678 61.914,-68.213 61.914,-66.309L61.914,-33.398C61.914,-31.445 60.4,-29.981 58.496,-29.981L33.008,-29.981Z" style="fill:rgb(191,191,191);fill-rule:nonzero;"/>
    </g>
</svg>
