<?xml version="1.0" encoding="UTF-8" standalone="no"?>
<!DOCTYPE svg PUBLIC "-//W3C//DTD SVG 1.1//EN" "http://www.w3.org/Graphics/SVG/1.1/DTD/svg11.dtd">
<svg width="100%" height="100%" viewBox="0 0 105 110" version="1.1" xmlns="http://www.w3.org/2000/svg" xmlns:xlink="http://www.w3.org/1999/xlink" xml:space="preserve" xmlns:serif="http://www.serif.com/" style="fill-rule:evenodd;clip-rule:evenodd;stroke-linejoin:round;stroke-miterlimit:2;">
    <g id="Regular-M" transform="matrix(1,0,0,1,-12.4512,92.334)">
        <path d="M33.887,-86.035L96.729,-86.035C96.436,-90.137 94.092,-92.334 89.6,-92.334L41.016,-92.334C36.523,-92.334 34.18,-90.137 33.887,-86.035ZM23.34,-72.51L106.299,-72.51C105.566,-76.953 103.467,-79.394 98.584,-79.394L31.055,-79.394C26.172,-79.394 24.072,-76.953 23.34,-72.51ZM27.783,17.529L101.807,17.529C112.012,17.529 117.139,12.451 117.139,2.393L117.139,-49.463C117.139,-59.522 112.012,-64.6 101.807,-64.6L27.783,-64.6C17.529,-64.6 12.451,-59.57 12.451,-49.463L12.451,2.393C12.451,12.451 17.529,17.529 27.783,17.529Z" style="fill:rgb(226,181,1);fill-rule:nonzero;"/>
    </g>
</svg>
