<?xml version="1.0" encoding="UTF-8" standalone="no"?>
<!DOCTYPE svg PUBLIC "-//W3C//DTD SVG 1.1//EN" "http://www.w3.org/Graphics/SVG/1.1/DTD/svg11.dtd">
<svg width="100%" height="100%" viewBox="0 0 85 84" version="1.1" xmlns="http://www.w3.org/2000/svg" xmlns:xlink="http://www.w3.org/1999/xlink" xml:space="preserve" xmlns:serif="http://www.serif.com/" style="fill-rule:evenodd;clip-rule:evenodd;stroke-linejoin:round;stroke-miterlimit:2;">
    <g transform="matrix(1,0,0,1,-12.4512,75.5859)">
        <path d="M44.287,7.861C46.387,7.861 48.047,6.934 49.219,5.127L95.361,-67.529C96.24,-68.945 96.582,-70.019 96.582,-71.143C96.582,-73.828 94.824,-75.586 92.139,-75.586C90.186,-75.586 89.111,-74.951 87.94,-73.096L44.092,-3.223L21.338,-33.008C20.117,-34.717 18.897,-35.4 17.139,-35.4C14.355,-35.4 12.451,-33.496 12.451,-30.811C12.451,-29.688 12.94,-28.418 13.867,-27.246L39.209,5.029C40.674,6.934 42.188,7.861 44.287,7.861Z" style="fill:rgb(0,232,255);fill-rule:nonzero;"/>
    </g>
</svg>
