<?xml version="1.0" encoding="UTF-8" standalone="no"?>
<!DOCTYPE svg PUBLIC "-//W3C//DTD SVG 1.1//EN" "http://www.w3.org/Graphics/SVG/1.1/DTD/svg11.dtd">
<svg width="100%" height="100%" viewBox="0 0 101 101" version="1.1" xmlns="http://www.w3.org/2000/svg" xmlns:xlink="http://www.w3.org/1999/xlink" xml:space="preserve" xmlns:serif="http://www.serif.com/" style="fill-rule:evenodd;clip-rule:evenodd;stroke-linejoin:round;stroke-miterlimit:2;">
    <g id="Regular-M" transform="matrix(1,0,0,1,-11.2226,85.5984)">
        <path d="M95.654,-34.082L103.467,-42.627C114.6,-53.76 114.404,-67.871 104.346,-78.027C94.287,-88.232 80.029,-88.281 68.897,-77.197L60.4,-69.336C64.6,-70.557 69.141,-69.58 73.926,-64.795L91.699,-47.022C96.484,-42.285 96.826,-38.33 95.654,-34.082ZM53.906,-10.547C58.789,-5.664 63.477,-5.518 68.457,-10.547L86.279,-28.369C91.309,-33.398 91.211,-38.037 86.328,-42.92L69.19,-60.059C64.307,-64.941 59.717,-65.039 54.639,-59.961L36.816,-42.188C31.836,-37.158 31.934,-32.471 36.816,-27.588L53.906,-10.547ZM58.35,-42.285C56.494,-44.141 56.494,-47.022 58.301,-48.828C60.156,-50.684 62.988,-50.684 64.795,-48.828C66.602,-47.022 66.65,-44.19 64.746,-42.285C63.037,-40.576 60.059,-40.576 58.35,-42.285ZM47.998,-31.982C46.143,-33.838 46.143,-36.67 47.998,-38.525C49.853,-40.381 52.686,-40.332 54.541,-38.477C56.25,-36.719 56.299,-33.838 54.541,-32.08C52.637,-30.127 49.805,-30.225 47.998,-31.982ZM75.098,-31.982C73.291,-30.225 70.41,-30.225 68.555,-32.08C66.846,-33.789 66.846,-36.719 68.555,-38.477C70.459,-40.381 73.291,-40.332 75.098,-38.525C76.953,-36.67 76.953,-33.838 75.098,-31.982ZM18.75,7.52C28.809,17.725 43.066,17.822 54.199,6.689L62.598,-1.221C58.35,0 54.053,-0.83 49.316,-5.566L31.494,-23.389C26.709,-28.125 26.318,-32.08 27.49,-36.328L19.629,-27.881C8.447,-16.797 8.691,-2.637 18.75,7.52ZM58.301,-21.729C56.494,-23.486 56.445,-26.318 58.35,-28.223C60.156,-30.029 63.037,-29.981 64.746,-28.223C66.602,-26.416 66.65,-23.486 64.795,-21.729C62.891,-19.873 60.156,-19.873 58.301,-21.729Z" style="fill:rgb(191,191,191);fill-rule:nonzero;"/>
    </g>
</svg>
