<?xml version="1.0" encoding="UTF-8" standalone="no"?>
<!DOCTYPE svg PUBLIC "-//W3C//DTD SVG 1.1//EN" "http://www.w3.org/Graphics/SVG/1.1/DTD/svg11.dtd">
<svg width="100%" height="100%" viewBox="0 0 110 105" version="1.1" xmlns="http://www.w3.org/2000/svg" xmlns:xlink="http://www.w3.org/1999/xlink" xml:space="preserve" xmlns:serif="http://www.serif.com/" style="fill-rule:evenodd;clip-rule:evenodd;stroke-linejoin:round;stroke-miterlimit:2;">
    <g id="Regular-M" transform="matrix(1,0,0,1,-12.4512,86.7188)">
        <path d="M31.787,-75.44L102.832,-75.44L102.832,-76.269C102.832,-83.496 97.217,-86.719 89.307,-86.719L45.313,-86.719C37.744,-86.719 31.787,-83.496 31.787,-76.269L31.787,-75.44ZM26.953,-0.537L28.076,-0.537L28.076,-27.637C28.076,-34.619 32.373,-38.916 39.356,-38.916L95.264,-38.916C102.246,-38.916 106.543,-34.619 106.543,-27.637L106.543,-0.537L107.617,-0.537C117.139,-0.537 122.168,-5.322 122.168,-14.844L122.168,-54.59C122.168,-64.111 117.139,-68.945 107.617,-68.945L26.953,-68.945C17.969,-68.945 12.451,-64.111 12.451,-54.59L12.451,-14.844C12.451,-5.322 17.481,-0.537 26.953,-0.537ZM91.065,-52.783C91.065,-56.152 93.945,-59.082 97.412,-59.082C100.732,-59.082 103.662,-56.152 103.662,-52.783C103.662,-49.316 100.732,-46.582 97.412,-46.533C93.945,-46.533 91.065,-49.268 91.065,-52.783ZM34.766,11.572C34.766,15.527 37.402,18.164 41.309,18.164L93.311,18.164C97.266,18.164 99.854,15.527 99.854,11.572L99.854,-27.637C99.854,-30.42 98.047,-32.227 95.264,-32.227L39.356,-32.227C36.621,-32.227 34.766,-30.42 34.766,-27.637L34.766,11.572ZM51.416,-12.647C49.609,-12.647 48.242,-14.063 48.242,-15.869C48.242,-17.578 49.609,-18.897 51.416,-18.897L83.301,-18.897C85.107,-18.897 86.426,-17.578 86.426,-15.869C86.426,-14.063 85.107,-12.647 83.301,-12.647L51.416,-12.647ZM51.416,4.834C49.609,4.834 48.242,3.467 48.242,1.758C48.242,-0.049 49.609,-1.416 51.416,-1.416L83.301,-1.416C85.107,-1.416 86.426,-0.049 86.426,1.758C86.426,3.467 85.107,4.834 83.301,4.834L51.416,4.834Z" style="fill:rgb(226,181,1);fill-rule:nonzero;"/>
    </g>
</svg>
