<?xml version="1.0" encoding="UTF-8" standalone="no"?>
<!DOCTYPE svg PUBLIC "-//W3C//DTD SVG 1.1//EN" "http://www.w3.org/Graphics/SVG/1.1/DTD/svg11.dtd">
<svg width="100%" height="100%" viewBox="0 0 108 102" version="1.1" xmlns="http://www.w3.org/2000/svg" xmlns:xlink="http://www.w3.org/1999/xlink" xml:space="preserve" xmlns:serif="http://www.serif.com/" style="fill-rule:evenodd;clip-rule:evenodd;stroke-linejoin:round;stroke-miterlimit:2;">
    <g id="Regular-M" transform="matrix(1,0,0,1,-12.4512,82.6172)">
        <path d="M41.455,18.701C43.359,18.701 44.775,17.725 47.07,15.576L64.697,-0.537L97.705,-0.488C112.256,-0.439 120.068,-8.545 120.068,-22.852L120.068,-60.254C120.068,-74.561 112.256,-82.617 97.705,-82.617L34.815,-82.617C20.264,-82.617 12.451,-74.609 12.451,-60.254L12.451,-22.852C12.451,-8.496 20.264,-0.488 34.815,-0.537L37.109,-0.537L37.109,13.672C37.109,16.699 38.672,18.701 41.455,18.701ZM34.473,-34.961C32.861,-34.961 31.543,-36.231 31.543,-37.891C31.543,-39.453 32.861,-40.82 34.473,-40.82L55.176,-40.82C56.787,-40.82 58.106,-39.453 58.106,-37.891C58.106,-36.231 56.787,-34.961 55.176,-34.961L34.473,-34.961ZM65.576,-34.961C63.965,-34.961 62.647,-36.231 62.647,-37.891C62.647,-39.453 63.965,-40.82 65.576,-40.82L98.144,-40.82C99.756,-40.82 101.025,-39.453 101.025,-37.891C101.025,-36.231 99.756,-34.961 98.144,-34.961L65.576,-34.961ZM34.473,-21.777C32.861,-21.777 31.543,-23.047 31.543,-24.658C31.543,-26.318 32.861,-27.637 34.473,-27.637L43.018,-27.637C44.629,-27.637 45.898,-26.318 45.898,-24.658C45.898,-23.047 44.629,-21.777 43.018,-21.777L34.473,-21.777ZM53.369,-21.777C51.758,-21.777 50.488,-23.047 50.488,-24.658C50.488,-26.318 51.758,-27.637 53.369,-27.637L78.613,-27.637C80.225,-27.637 81.543,-26.318 81.543,-24.658C81.543,-23.047 80.225,-21.777 78.613,-21.777L53.369,-21.777ZM89.014,-21.777C87.402,-21.777 86.084,-23.047 86.084,-24.658C86.084,-26.318 87.402,-27.637 89.014,-27.637L98.144,-27.637C99.756,-27.637 101.025,-26.318 101.025,-24.658C101.025,-23.047 99.756,-21.777 98.144,-21.777L89.014,-21.777Z" style="fill:rgb(191,191,191);fill-rule:nonzero;"/>
    </g>
</svg>
