<?xml version="1.0" encoding="UTF-8" standalone="no"?>
<!DOCTYPE svg PUBLIC "-//W3C//DTD SVG 1.1//EN" "http://www.w3.org/Graphics/SVG/1.1/DTD/svg11.dtd">
<svg width="100%" height="100%" viewBox="0 0 106 121" version="1.1" xmlns="http://www.w3.org/2000/svg" xmlns:xlink="http://www.w3.org/1999/xlink" xml:space="preserve" xmlns:serif="http://www.serif.com/" style="fill-rule:evenodd;clip-rule:evenodd;stroke-linejoin:round;stroke-miterlimit:2;">
    <g id="Regular-M" transform="matrix(1,0,0,1,-12.4512,96.1914)">
        <path d="M65.186,-57.373C66.211,-57.373 66.992,-57.764 68.018,-58.691L84.277,-73.828C85.107,-74.561 85.547,-75.44 85.547,-76.563C85.547,-78.565 84.033,-80.029 81.982,-80.029C81.006,-80.029 80.078,-79.59 79.346,-78.857L72.949,-72.51L68.75,-68.115L69.092,-76.318L69.092,-92.432C69.092,-94.482 67.285,-96.191 65.186,-96.191C63.086,-96.191 61.328,-94.482 61.328,-92.432L61.328,-76.318L61.621,-68.115L57.422,-72.51L51.074,-78.857C50.342,-79.59 49.365,-80.029 48.389,-80.029C46.289,-80.029 44.824,-78.565 44.824,-76.563C44.824,-75.44 45.264,-74.561 46.143,-73.828L62.353,-58.691C63.428,-57.764 64.209,-57.373 65.186,-57.373ZM26.27,-20.215L104.15,-20.215C112.305,-20.215 117.969,-25.732 117.969,-33.252L117.969,-38.232C117.969,-45.752 112.305,-51.27 104.15,-51.27L26.27,-51.27C18.115,-51.27 12.451,-45.752 12.451,-38.232L12.451,-33.252C12.451,-25.732 18.115,-20.215 26.27,-20.215ZM27.295,-27.588C22.9,-27.588 20.215,-30.518 20.215,-34.473L20.215,-37.012C20.215,-40.967 22.9,-43.897 27.295,-43.897L103.125,-43.897C107.52,-43.897 110.205,-40.967 110.205,-37.012L110.205,-34.473C110.205,-30.518 107.52,-27.588 103.125,-27.588L27.295,-27.588ZM65.186,24.707C67.285,24.707 69.092,22.998 69.092,20.947L69.092,4.834L68.75,-3.369L72.949,1.025L79.346,7.373C80.078,8.105 81.006,8.545 81.982,8.545C84.033,8.545 85.547,7.129 85.547,5.078C85.547,3.955 85.107,3.125 84.277,2.344L68.018,-12.793C66.992,-13.721 66.211,-14.063 65.186,-14.063C64.209,-14.063 63.428,-13.721 62.353,-12.793L46.143,2.344C45.264,3.125 44.824,3.955 44.824,5.078C44.824,7.129 46.289,8.545 48.389,8.545C49.365,8.545 50.342,8.105 51.074,7.373L57.422,1.025L61.621,-3.369L61.328,4.834L61.328,20.947C61.328,22.998 63.086,24.707 65.186,24.707Z" style="fill:rgb(191,191,191);fill-rule:nonzero;"/>
        <g transform="matrix(1,0,0,1,12.4512,-96.1914)">
            <rect x="6" y="52" width="92" height="19" style="fill:rgb(191,191,191);"/>
        </g>
    </g>
</svg>
