<?xml version="1.0" encoding="UTF-8" standalone="no"?>
<!DOCTYPE svg PUBLIC "-//W3C//DTD SVG 1.1//EN" "http://www.w3.org/Graphics/SVG/1.1/DTD/svg11.dtd">
<svg width="100%" height="100%" viewBox="0 0 48 85" version="1.1" xmlns="http://www.w3.org/2000/svg" xmlns:xlink="http://www.w3.org/1999/xlink" xml:space="preserve" xmlns:serif="http://www.serif.com/" style="fill-rule:evenodd;clip-rule:evenodd;stroke-linejoin:round;stroke-miterlimit:2;">
    <g id="Regular-M" transform="matrix(1,0,0,1,-6.25,77.6367)">
        <path d="M6.25,-35.254C6.25,-34.033 6.689,-32.959 7.617,-32.031L46.338,5.811C47.168,6.689 48.242,7.129 49.512,7.129C52.051,7.129 54.004,5.225 54.004,2.686C54.004,1.416 53.467,0.342 52.686,-0.488L17.139,-35.254L52.686,-70.019C53.467,-70.85 54.004,-71.973 54.004,-73.193C54.004,-75.732 52.051,-77.637 49.512,-77.637C48.242,-77.637 47.168,-77.197 46.338,-76.367L7.617,-38.477C6.689,-37.598 6.25,-36.475 6.25,-35.254Z" style="fill:rgb(191,191,191);fill-rule:nonzero;"/>
    </g>
</svg>
