<?xml version="1.0" encoding="UTF-8" standalone="no"?>
<!DOCTYPE svg PUBLIC "-//W3C//DTD SVG 1.1//EN" "http://www.w3.org/Graphics/SVG/1.1/DTD/svg11.dtd">
<svg width="100%" height="100%" viewBox="0 0 48 85" version="1.1" xmlns="http://www.w3.org/2000/svg" xmlns:xlink="http://www.w3.org/1999/xlink" xml:space="preserve" xmlns:serif="http://www.serif.com/" style="fill-rule:evenodd;clip-rule:evenodd;stroke-linejoin:round;stroke-miterlimit:2;">
    <g id="Regular-M" transform="matrix(1,0,0,1,-18.7012,77.6367)">
        <path d="M66.455,-35.254C66.455,-36.475 65.967,-37.598 65.039,-38.477L26.367,-76.367C25.488,-77.197 24.414,-77.637 23.145,-77.637C20.654,-77.637 18.701,-75.732 18.701,-73.193C18.701,-71.973 19.19,-70.85 19.971,-70.019L55.518,-35.254L19.971,-0.488C19.19,0.342 18.701,1.416 18.701,2.686C18.701,5.225 20.654,7.129 23.145,7.129C24.414,7.129 25.488,6.689 26.367,5.811L65.039,-32.031C65.967,-32.959 66.455,-34.033 66.455,-35.254Z" style="fill:rgb(191,191,191);fill-rule:nonzero;"/>
    </g>
</svg>
