<?xml version="1.0" encoding="UTF-8" standalone="no"?>
<!DOCTYPE svg PUBLIC "-//W3C//DTD SVG 1.1//EN" "http://www.w3.org/Graphics/SVG/1.1/DTD/svg11.dtd">
<svg width="100%" height="100%" viewBox="0 0 127 103" version="1.1" xmlns="http://www.w3.org/2000/svg" xmlns:xlink="http://www.w3.org/1999/xlink" xml:space="preserve" xmlns:serif="http://www.serif.com/" style="fill-rule:evenodd;clip-rule:evenodd;stroke-linejoin:round;stroke-miterlimit:2;">
    <g id="Regular-M" transform="matrix(1,0,0,1,-12.4512,86.3281)">
        <path d="M12.451,-21.777C12.451,-11.719 17.529,-6.641 27.783,-6.641L30.42,-6.641L30.42,-49.316C30.42,-63.184 37.744,-70.361 51.709,-70.361L114.307,-70.361L114.307,-71.191C114.307,-81.25 109.18,-86.328 99.023,-86.328L27.783,-86.328C17.529,-86.328 12.451,-81.25 12.451,-71.191L12.451,-21.777ZM52.441,15.967L123.682,15.967C133.838,15.967 138.965,10.889 138.965,0.83L138.965,-48.584C138.965,-58.643 133.838,-63.721 123.682,-63.721L52.441,-63.721C42.188,-63.721 37.109,-58.691 37.109,-48.584L37.109,0.83C37.109,10.889 42.188,15.967 52.441,15.967ZM71.24,-24.707C65.088,-24.707 60.107,-29.688 60.107,-35.791C60.107,-41.846 65.088,-46.875 71.24,-46.875C77.295,-46.875 82.275,-41.846 82.275,-35.791C82.275,-29.688 77.295,-24.707 71.24,-24.707ZM51.904,7.813C47.559,7.813 45.264,5.518 45.264,1.123L45.264,-2.881L53.467,-10.303C57.715,-14.209 60.205,-16.846 63.574,-16.846C67.041,-16.846 69.824,-14.111 74.219,-10.303L78.662,-6.348L97.266,-23.193C101.66,-27.148 104.004,-28.418 107.178,-28.418C110.254,-28.418 112.549,-27.1 116.699,-22.949L130.859,-8.936L130.859,1.123C130.859,5.469 128.516,7.813 124.17,7.813L51.904,7.813Z" style="fill:rgb(226,181,1);fill-rule:nonzero;"/>
    </g>
</svg>
