<?xml version="1.0" encoding="UTF-8" standalone="no"?>
<!DOCTYPE svg PUBLIC "-//W3C//DTD SVG 1.1//EN" "http://www.w3.org/Graphics/SVG/1.1/DTD/svg11.dtd">
<svg width="100%" height="100%" viewBox="0 0 100 100" version="1.1" xmlns="http://www.w3.org/2000/svg" xmlns:xlink="http://www.w3.org/1999/xlink" xml:space="preserve" xmlns:serif="http://www.serif.com/" style="fill-rule:evenodd;clip-rule:evenodd;stroke-linejoin:round;stroke-miterlimit:2;">
    <g id="Regular-M" transform="matrix(1,0,0,1,-8.74023,85.0586)">
        <path d="M58.545,14.551C85.791,14.551 108.35,-8.057 108.35,-35.254C108.35,-62.5 85.742,-85.059 58.496,-85.059C31.299,-85.059 8.74,-62.5 8.74,-35.254C8.74,-8.057 31.348,14.551 58.545,14.551ZM36.035,-35.254C33.984,-35.254 32.373,-36.865 32.373,-38.916L32.373,-57.031C32.373,-60.156 33.936,-61.377 36.67,-61.377L54.736,-61.377C56.787,-61.377 58.398,-59.717 58.398,-57.666C58.398,-55.615 56.787,-54.004 54.736,-54.004L52.197,-54.004L44.287,-54.492L55.908,-43.408C57.422,-41.943 57.471,-39.356 55.957,-37.842C54.443,-36.279 51.904,-36.231 50.391,-37.891L39.209,-49.609L39.746,-41.455L39.746,-38.916C39.746,-36.865 38.086,-35.254 36.035,-35.254ZM62.305,-9.033C60.254,-9.033 58.594,-10.693 58.594,-12.744C58.594,-14.795 60.254,-16.406 62.305,-16.406L64.844,-16.406L72.754,-15.918L61.084,-27.002C59.57,-28.467 59.522,-31.055 61.035,-32.568C62.598,-34.131 65.088,-34.18 66.65,-32.52L77.783,-20.801L77.295,-28.955L77.295,-31.494C77.295,-33.545 78.906,-35.156 80.957,-35.156C83.008,-35.156 84.668,-33.545 84.668,-31.494L84.668,-13.379C84.668,-10.254 83.057,-9.033 80.322,-9.033L62.305,-9.033Z" style="fill:rgb(0,232,255);fill-rule:nonzero;"/>
    </g>
</svg>
