<?xml version="1.0" encoding="UTF-8" standalone="no"?>
<!DOCTYPE svg PUBLIC "-//W3C//DTD SVG 1.1//EN" "http://www.w3.org/Graphics/SVG/1.1/DTD/svg11.dtd">
<svg width="100%" height="100%" viewBox="0 0 100 100" version="1.1" xmlns="http://www.w3.org/2000/svg" xmlns:xlink="http://www.w3.org/1999/xlink" xml:space="preserve" xmlns:serif="http://www.serif.com/" style="fill-rule:evenodd;clip-rule:evenodd;stroke-linejoin:round;stroke-miterlimit:2;">
    <g id="Regular-M" transform="matrix(1,0,0,1,-8.74023,85.0586)">
        <path d="M58.545,14.551C85.791,14.551 108.35,-8.057 108.35,-35.254C108.35,-62.5 85.742,-85.059 58.496,-85.059C31.299,-85.059 8.74,-62.5 8.74,-35.254C8.74,-8.057 31.348,14.551 58.545,14.551ZM58.496,-15.967C47.9,-15.967 39.16,-24.609 39.16,-35.303C39.16,-45.85 47.9,-54.492 58.496,-54.492C69.043,-54.492 77.783,-45.85 77.783,-35.303C77.783,-24.609 69.043,-15.967 58.496,-15.967ZM58.545,-23.926C64.648,-23.926 69.727,-29.053 69.727,-35.303C69.727,-41.406 64.648,-46.484 58.545,-46.484C52.393,-46.484 47.266,-41.406 47.266,-35.303C47.266,-29.053 52.344,-23.926 58.545,-23.926Z" style="fill:rgb(226,181,1);fill-rule:nonzero;"/>
    </g>
</svg>
