<?xml version="1.0" encoding="UTF-8" standalone="no"?>
<!DOCTYPE svg PUBLIC "-//W3C//DTD SVG 1.1//EN" "http://www.w3.org/Graphics/SVG/1.1/DTD/svg11.dtd">
<svg width="100%" height="100%" viewBox="0 0 107 98" version="1.1" xmlns="http://www.w3.org/2000/svg" xmlns:xlink="http://www.w3.org/1999/xlink" xml:space="preserve" xmlns:serif="http://www.serif.com/" style="fill-rule:evenodd;clip-rule:evenodd;stroke-linejoin:round;stroke-miterlimit:2;">
    <g id="Regular-M" transform="matrix(1,0,0,1,-8.74023,84.2773)">
        <path d="M49.365,-60.986C49.951,-60.986 50.244,-61.328 50.342,-61.865C52.002,-69.678 51.904,-69.971 60.107,-71.631C60.645,-71.729 61.035,-72.07 61.035,-72.607C61.035,-73.193 60.645,-73.535 60.107,-73.633C51.904,-75.293 52.002,-75.586 50.342,-83.35C50.244,-83.887 49.951,-84.277 49.365,-84.277C48.779,-84.277 48.486,-83.887 48.389,-83.35C46.728,-75.586 46.826,-75.293 38.623,-73.633C38.086,-73.535 37.695,-73.193 37.695,-72.607C37.695,-72.07 38.086,-71.729 38.623,-71.631C46.826,-69.971 46.728,-69.678 48.389,-61.865C48.486,-61.328 48.779,-60.986 49.365,-60.986ZM89.697,-43.75C90.381,-43.75 90.772,-44.19 90.918,-44.824C92.578,-54.102 92.627,-54.688 102.441,-56.397C103.125,-56.494 103.564,-56.934 103.564,-57.617C103.564,-58.301 103.125,-58.691 102.441,-58.838C92.627,-60.498 92.578,-61.084 90.918,-70.361C90.772,-70.996 90.381,-71.484 89.697,-71.484C89.014,-71.484 88.623,-70.996 88.477,-70.361C86.816,-61.084 86.768,-60.498 76.953,-58.838C76.318,-58.691 75.83,-58.301 75.83,-57.617C75.83,-56.934 76.318,-56.494 76.953,-56.397C86.768,-54.688 86.816,-54.102 88.477,-44.824C88.623,-44.19 89.014,-43.75 89.697,-43.75ZM22.607,-29.736C23.291,-29.736 23.682,-30.225 23.828,-30.859C25.488,-40.137 25.537,-40.723 35.352,-42.383C35.986,-42.529 36.475,-42.92 36.475,-43.603C36.475,-44.287 35.986,-44.727 35.352,-44.824C25.537,-46.533 25.488,-47.119 23.828,-56.397C23.682,-57.031 23.291,-57.471 22.607,-57.471C21.924,-57.471 21.533,-57.031 21.387,-56.397C19.727,-47.119 19.678,-46.533 9.863,-44.824C9.229,-44.727 8.74,-44.287 8.74,-43.603C8.74,-42.92 9.229,-42.529 9.863,-42.383C19.678,-40.723 19.727,-40.137 21.387,-30.859C21.533,-30.225 21.924,-29.736 22.607,-29.736ZM106.006,12.012C108.057,14.111 111.572,14.111 113.525,12.012C115.527,9.863 115.527,6.543 113.525,4.492L67.09,-42.09C65.039,-44.141 61.523,-44.141 59.57,-42.09C57.52,-39.941 57.568,-36.572 59.57,-34.522L106.006,12.012ZM45.801,12.793C46.68,12.793 47.315,12.158 47.461,11.23C49.023,-1.807 49.658,-2.148 62.94,-4.297C63.965,-4.492 64.6,-4.98 64.6,-5.957C64.6,-6.885 63.965,-7.471 63.135,-7.617C49.756,-10.156 49.023,-10.107 47.461,-23.145C47.315,-24.072 46.68,-24.707 45.801,-24.707C44.873,-24.707 44.238,-24.072 44.141,-23.193C42.432,-9.961 41.992,-9.521 28.467,-7.617C27.637,-7.52 27.002,-6.885 27.002,-5.957C27.002,-5.029 27.637,-4.492 28.467,-4.297C41.992,-1.709 42.383,-1.709 44.141,11.328C44.238,12.158 44.873,12.793 45.801,12.793ZM107.715,8.643L77.588,-21.533L80.029,-23.877L110.156,6.299C111.035,7.129 111.23,8.105 110.449,8.984C109.57,9.717 108.643,9.57 107.715,8.643Z" style="fill:rgb(238,37,137);fill-rule:nonzero;"/>
    </g>
</svg>
