<?xml version="1.0" encoding="UTF-8" standalone="no"?>
<!DOCTYPE svg PUBLIC "-//W3C//DTD SVG 1.1//EN" "http://www.w3.org/Graphics/SVG/1.1/DTD/svg11.dtd">
<svg width="100%" height="100%" viewBox="0 0 78 78" version="1.1" xmlns="http://www.w3.org/2000/svg" xmlns:xlink="http://www.w3.org/1999/xlink" xml:space="preserve" xmlns:serif="http://www.serif.com/" style="fill-rule:evenodd;clip-rule:evenodd;stroke-linejoin:round;stroke-miterlimit:2;">
    <g id="Regular-M" transform="matrix(1,0,0,1,-12.4572,73.9075)">
        <path d="M13.721,-3.906C12.06,-2.246 12.012,0.586 13.721,2.246C15.43,3.906 18.262,3.906 19.922,2.246L51.172,-29.004L82.422,2.246C84.082,3.906 86.963,3.955 88.623,2.246C90.283,0.537 90.283,-2.246 88.623,-3.906L57.373,-35.205L88.623,-66.455C90.283,-68.115 90.332,-70.947 88.623,-72.607C86.914,-74.316 84.082,-74.316 82.422,-72.607L51.172,-41.357L19.922,-72.607C18.262,-74.316 15.381,-74.365 13.721,-72.607C12.06,-70.898 12.06,-68.115 13.721,-66.455L44.971,-35.205L13.721,-3.906Z" style="fill:rgb(191,191,191);fill-rule:nonzero;"/>
    </g>
</svg>
