<?xml version="1.0" encoding="UTF-8" standalone="no"?>
<!DOCTYPE svg PUBLIC "-//W3C//DTD SVG 1.1//EN" "http://www.w3.org/Graphics/SVG/1.1/DTD/svg11.dtd">
<svg width="100%" height="100%" viewBox="0 0 112 133" version="1.1" xmlns="http://www.w3.org/2000/svg" xmlns:xlink="http://www.w3.org/1999/xlink" xml:space="preserve" xmlns:serif="http://www.serif.com/" style="fill-rule:evenodd;clip-rule:evenodd;stroke-linejoin:round;stroke-miterlimit:2;">
    <g id="Regular-M" transform="matrix(1,0,0,1,-12.4512,101.611)">
        <path d="M55.811,-65.625C57.91,-65.625 59.668,-67.334 59.668,-69.385L59.668,-83.643L59.375,-90.918L62.647,-87.451L70.068,-79.59C70.752,-78.809 71.777,-78.418 72.705,-78.418C74.707,-78.418 76.269,-79.834 76.269,-81.836C76.269,-82.91 75.83,-83.691 75.098,-84.424L58.594,-100.342C57.617,-101.318 56.787,-101.611 55.811,-101.611C54.785,-101.611 53.955,-101.318 52.978,-100.342L36.475,-84.424C35.742,-83.691 35.303,-82.91 35.303,-81.836C35.303,-79.834 36.768,-78.418 38.818,-78.418C39.746,-78.418 40.82,-78.809 41.504,-79.59L48.926,-87.451L52.197,-90.918L51.904,-83.643L51.904,-69.385C51.904,-67.334 53.711,-65.625 55.811,-65.625ZM27.783,8.545L83.789,8.545C93.994,8.545 99.121,3.467 99.121,-6.592L99.121,-54.297C99.121,-64.356 93.994,-69.434 83.789,-69.434L60.791,-69.434L60.791,-33.447C60.791,-30.811 58.496,-28.565 55.811,-28.565C53.076,-28.565 50.781,-30.811 50.781,-33.447L50.781,-69.434L27.783,-69.434C17.578,-69.434 12.451,-64.404 12.451,-54.297L12.451,-6.592C12.451,3.516 17.578,8.545 27.783,8.545ZM56.299,31.152L108.154,31.152C118.408,31.152 123.486,26.123 123.486,16.016L123.486,-32.666C123.486,-42.773 118.408,-47.803 108.154,-47.803L105.762,-47.803L105.762,-5.859C105.762,8.008 98.486,15.234 84.522,15.234L40.967,15.234L40.967,15.723C40.967,25.928 45.801,31.152 56.299,31.152Z" style="fill:rgb(191,191,191);fill-rule:nonzero;"/>
    </g>
</svg>
