<?xml version="1.0" encoding="UTF-8" standalone="no"?>
<!DOCTYPE svg PUBLIC "-//W3C//DTD SVG 1.1//EN" "http://www.w3.org/Graphics/SVG/1.1/DTD/svg11.dtd">
<svg width="100%" height="100%" viewBox="0 0 107 99" version="1.1" xmlns="http://www.w3.org/2000/svg" xmlns:xlink="http://www.w3.org/1999/xlink" xml:space="preserve" xmlns:serif="http://www.serif.com/" style="fill-rule:evenodd;clip-rule:evenodd;stroke-linejoin:round;stroke-miterlimit:2;">
    <g id="Regular-M" transform="matrix(1,0,0,1,-11.2285,83.7665)">
        <path d="M103.467,-82.031C100.977,-80.225 73.828,-61.621 57.178,-46.924C68.213,-43.457 76.856,-34.863 80.371,-23.682C95.166,-40.332 113.721,-67.432 115.527,-69.971C121.289,-78.027 111.23,-87.793 103.467,-82.031ZM57.422,-23.975C60.986,-20.41 63.672,-15.674 64.307,-11.816C68.262,-12.451 71.436,-14.307 74.756,-17.627C75.293,-18.115 75.781,-18.652 76.269,-19.238C74.121,-31.006 64.307,-40.674 52.734,-42.822C52.148,-42.334 51.611,-41.797 51.074,-41.26C47.754,-37.94 45.947,-34.668 45.313,-30.811C49.121,-30.176 53.906,-27.539 57.422,-23.975ZM12.305,2.588C20.459,14.307 38.477,18.311 50,10.303C59.961,3.369 62.158,-7.373 55.566,-16.748C49.658,-25.244 38.965,-27.637 31.934,-22.607C23.828,-16.846 27.1,-8.936 22.119,-5.42C17.969,-2.441 15.088,-4.297 12.695,-2.686C11.133,-1.709 10.547,0.146 12.305,2.588Z" style="fill:rgb(191,191,191);fill-rule:nonzero;"/>
    </g>
</svg>
