<?xml version="1.0" encoding="UTF-8" standalone="no"?>
<!DOCTYPE svg PUBLIC "-//W3C//DTD SVG 1.1//EN" "http://www.w3.org/Graphics/SVG/1.1/DTD/svg11.dtd">
<svg width="100%" height="100%" viewBox="0 0 106 106" version="1.1" xmlns="http://www.w3.org/2000/svg" xmlns:xlink="http://www.w3.org/1999/xlink" xml:space="preserve" xmlns:serif="http://www.serif.com/" style="fill-rule:evenodd;clip-rule:evenodd;stroke-linejoin:round;stroke-miterlimit:2;">
    <g id="Regular-M" transform="matrix(1,0,0,1,-8.74023,88.4277)">
        <path d="M65.869,-84.18C65.869,-86.475 63.916,-88.428 61.572,-88.428C59.277,-88.428 57.324,-86.475 57.324,-84.18L57.324,-73.926C57.324,-71.631 59.277,-69.678 61.572,-69.678C63.916,-69.678 65.869,-71.631 65.869,-73.926L65.869,-84.18ZM85.693,-65.576C84.082,-63.916 84.082,-61.182 85.693,-59.57C87.354,-57.91 90.088,-57.861 91.748,-59.57L99.023,-66.846C100.684,-68.506 100.684,-71.24 99.023,-72.9C97.412,-74.512 94.678,-74.512 93.066,-72.9L85.693,-65.576ZM31.397,-59.57C33.057,-57.91 35.791,-57.91 37.402,-59.57C39.063,-61.133 39.063,-63.965 37.451,-65.576L30.176,-72.9C28.613,-74.463 25.83,-74.512 24.17,-72.9C22.559,-71.289 22.559,-68.506 24.121,-66.894L31.397,-59.57ZM61.572,-60.352C47.949,-60.352 36.67,-49.072 36.67,-35.449C36.67,-21.826 47.949,-10.498 61.572,-10.498C75.147,-10.498 86.426,-21.826 86.426,-35.449C86.426,-49.072 75.147,-60.352 61.572,-60.352ZM110.156,-31.201C112.5,-31.201 114.453,-33.154 114.453,-35.449C114.453,-37.744 112.5,-39.697 110.156,-39.697L99.951,-39.697C97.656,-39.697 95.703,-37.744 95.703,-35.449C95.703,-33.154 97.656,-31.201 99.951,-31.201L110.156,-31.201ZM12.988,-39.697C10.693,-39.697 8.74,-37.744 8.74,-35.449C8.74,-33.154 10.693,-31.201 12.988,-31.201L23.193,-31.201C25.537,-31.201 27.49,-33.154 27.49,-35.449C27.49,-37.744 25.537,-39.697 23.193,-39.697L12.988,-39.697ZM91.699,-11.279C90.088,-12.891 87.354,-12.891 85.693,-11.279C84.082,-9.668 84.082,-6.934 85.693,-5.273L93.066,2.051C94.678,3.662 97.412,3.613 99.023,2.002C100.684,0.391 100.684,-2.344 99.023,-4.004L91.699,-11.279ZM24.121,-4.053C22.51,-2.441 22.51,0.342 24.072,1.953C25.684,3.564 28.467,3.613 30.127,2.002L37.402,-5.273C39.063,-6.885 39.063,-9.619 37.451,-11.279C35.84,-12.891 33.057,-12.891 31.397,-11.279L24.121,-4.053ZM65.869,3.027C65.869,0.732 63.916,-1.221 61.572,-1.221C59.277,-1.221 57.324,0.732 57.324,3.027L57.324,13.281C57.324,15.576 59.277,17.529 61.572,17.529C63.916,17.529 65.869,15.576 65.869,13.281L65.869,3.027Z" style="fill:rgb(226,181,1);fill-rule:nonzero;"/>
    </g>
</svg>
