<?xml version="1.0" encoding="UTF-8" standalone="no"?>
<!DOCTYPE svg PUBLIC "-//W3C//DTD SVG 1.1//EN" "http://www.w3.org/Graphics/SVG/1.1/DTD/svg11.dtd">
<svg width="100%" height="100%" viewBox="0 0 139 78" version="1.1" xmlns="http://www.w3.org/2000/svg" xmlns:xlink="http://www.w3.org/1999/xlink" xml:space="preserve" xmlns:serif="http://www.serif.com/" style="fill-rule:evenodd;clip-rule:evenodd;stroke-linejoin:round;stroke-miterlimit:2;">
    <g id="Regular-M" transform="matrix(1,0,0,1,-12.4512,74.8047)">
        <path d="M27.783,2.344L135.693,2.344C145.898,2.344 151.025,-2.734 151.025,-12.744L151.025,-59.668C151.025,-69.727 145.898,-74.805 135.693,-74.805L27.783,-74.805C17.529,-74.805 12.451,-69.727 12.451,-59.668L12.451,-12.744C12.451,-2.686 17.529,2.344 27.783,2.344ZM27.881,-5.518C22.998,-5.518 20.313,-8.105 20.313,-13.184L20.313,-59.228C20.313,-64.307 22.998,-66.943 27.881,-66.943L135.596,-66.943C140.43,-66.943 143.164,-64.307 143.164,-59.228L143.164,-13.184C143.164,-8.105 140.43,-5.518 135.596,-5.518L27.881,-5.518ZM127.002,-48.193L130.518,-48.193C131.885,-48.193 132.568,-48.828 132.568,-50.244L132.568,-53.711C132.568,-55.078 131.885,-55.762 130.518,-55.762L127.002,-55.762C125.635,-55.762 124.951,-55.078 124.951,-53.711L124.951,-50.244C124.951,-48.828 125.635,-48.193 127.002,-48.193ZM111.328,-48.193L114.795,-48.193C116.211,-48.193 116.846,-48.828 116.846,-50.244L116.846,-53.711C116.846,-55.078 116.211,-55.762 114.795,-55.762L111.328,-55.762C109.912,-55.762 109.277,-55.078 109.277,-53.711L109.277,-50.244C109.277,-48.828 109.912,-48.193 111.328,-48.193ZM95.606,-48.193L99.121,-48.193C100.488,-48.193 101.172,-48.828 101.172,-50.244L101.172,-53.711C101.172,-55.078 100.488,-55.762 99.121,-55.762L95.606,-55.762C94.238,-55.762 93.555,-55.078 93.555,-53.711L93.555,-50.244C93.555,-48.828 94.238,-48.193 95.606,-48.193ZM79.883,-48.193L83.398,-48.193C84.766,-48.193 85.449,-48.828 85.449,-50.244L85.449,-53.711C85.449,-55.078 84.766,-55.762 83.398,-55.762L79.883,-55.762C78.516,-55.762 77.832,-55.078 77.832,-53.711L77.832,-50.244C77.832,-48.828 78.516,-48.193 79.883,-48.193ZM64.209,-48.193L67.676,-48.193C69.092,-48.193 69.727,-48.828 69.727,-50.244L69.727,-53.711C69.727,-55.078 69.092,-55.762 67.676,-55.762L64.209,-55.762C62.793,-55.762 62.158,-55.078 62.158,-53.711L62.158,-50.244C62.158,-48.828 62.793,-48.193 64.209,-48.193ZM48.486,-48.193L52.002,-48.193C53.369,-48.193 54.053,-48.828 54.053,-50.244L54.053,-53.711C54.053,-55.078 53.369,-55.762 52.002,-55.762L48.486,-55.762C47.119,-55.762 46.436,-55.078 46.436,-53.711L46.436,-50.244C46.436,-48.828 47.119,-48.193 48.486,-48.193ZM32.764,-48.193L36.279,-48.193C37.647,-48.193 38.33,-48.828 38.33,-50.244L38.33,-53.711C38.33,-55.078 37.647,-55.762 36.279,-55.762L32.764,-55.762C31.397,-55.762 30.713,-55.078 30.713,-53.711L30.713,-50.244C30.713,-48.828 31.397,-48.193 32.764,-48.193ZM64.209,-32.471L67.676,-32.471C69.092,-32.471 69.727,-33.154 69.727,-34.522L69.727,-37.988C69.727,-39.404 69.092,-40.039 67.676,-40.039L64.209,-40.039C62.793,-40.039 62.158,-39.404 62.158,-37.988L62.158,-34.522C62.158,-33.154 62.793,-32.471 64.209,-32.471ZM79.883,-32.471L83.398,-32.471C84.766,-32.471 85.449,-33.154 85.449,-34.522L85.449,-37.988C85.449,-39.404 84.766,-40.039 83.398,-40.039L79.883,-40.039C78.516,-40.039 77.832,-39.404 77.832,-37.988L77.832,-34.522C77.832,-33.154 78.516,-32.471 79.883,-32.471ZM95.606,-32.471L99.121,-32.471C100.488,-32.471 101.172,-33.154 101.172,-34.522L101.172,-37.988C101.172,-39.404 100.488,-40.039 99.121,-40.039L95.606,-40.039C94.238,-40.039 93.555,-39.404 93.555,-37.988L93.555,-34.522C93.555,-33.154 94.238,-32.471 95.606,-32.471ZM111.328,-32.471L114.795,-32.471C116.211,-32.471 116.846,-33.154 116.846,-34.522L116.846,-37.988C116.846,-39.404 116.211,-40.039 114.795,-40.039L111.328,-40.039C109.912,-40.039 109.277,-39.404 109.277,-37.988L109.277,-34.522C109.277,-33.154 109.912,-32.471 111.328,-32.471ZM48.486,-32.471L52.002,-32.471C53.369,-32.471 54.053,-33.154 54.053,-34.522L54.053,-37.988C54.053,-39.404 53.369,-40.039 52.002,-40.039L48.486,-40.039C47.119,-40.039 46.436,-39.404 46.436,-37.988L46.436,-34.522C46.436,-33.154 47.119,-32.471 48.486,-32.471ZM127.002,-32.471L130.518,-32.471C131.885,-32.471 132.568,-33.154 132.568,-34.522L132.568,-37.988C132.568,-39.404 131.885,-40.039 130.518,-40.039L127.002,-40.039C125.635,-40.039 124.951,-39.404 124.951,-37.988L124.951,-34.522C124.951,-33.154 125.635,-32.471 127.002,-32.471ZM32.764,-32.471L36.279,-32.471C37.647,-32.471 38.33,-33.154 38.33,-34.522L38.33,-37.988C38.33,-39.404 37.647,-40.039 36.279,-40.039L32.764,-40.039C31.397,-40.039 30.713,-39.404 30.713,-37.988L30.713,-34.522C30.713,-33.154 31.397,-32.471 32.764,-32.471ZM48.486,-16.748L114.795,-16.748C116.211,-16.748 116.846,-17.432 116.846,-18.799L116.846,-22.315C116.846,-23.682 116.211,-24.365 114.795,-24.365L48.486,-24.365C47.119,-24.365 46.436,-23.682 46.436,-22.315L46.436,-18.799C46.436,-17.432 47.119,-16.748 48.486,-16.748ZM127.002,-16.748L130.518,-16.748C131.885,-16.748 132.568,-17.432 132.568,-18.799L132.568,-22.315C132.568,-23.682 131.885,-24.365 130.518,-24.365L127.002,-24.365C125.635,-24.365 124.951,-23.682 124.951,-22.315L124.951,-18.799C124.951,-17.432 125.635,-16.748 127.002,-16.748ZM32.764,-16.748L36.279,-16.748C37.647,-16.748 38.33,-17.432 38.33,-18.799L38.33,-22.315C38.33,-23.682 37.647,-24.365 36.279,-24.365L32.764,-24.365C31.397,-24.365 30.713,-23.682 30.713,-22.315L30.713,-18.799C30.713,-17.432 31.397,-16.748 32.764,-16.748Z" style="fill:rgb(226,181,1);fill-rule:nonzero;"/>
    </g>
</svg>
