<?xml version="1.0" encoding="UTF-8" standalone="no"?>
<!DOCTYPE svg PUBLIC "-//W3C//DTD SVG 1.1//EN" "http://www.w3.org/Graphics/SVG/1.1/DTD/svg11.dtd">
<svg width="100%" height="100%" viewBox="0 0 85 48" version="1.1" xmlns="http://www.w3.org/2000/svg" xmlns:xlink="http://www.w3.org/1999/xlink" xml:space="preserve" xmlns:serif="http://www.serif.com/" style="fill-rule:evenodd;clip-rule:evenodd;stroke-linejoin:round;stroke-miterlimit:2;">
    <g id="Regular-M" transform="matrix(1,0,0,1,-12.4512,56.9824)">
        <path d="M54.883,-9.229C56.103,-9.229 57.324,-9.717 58.154,-10.645L95.947,-49.365C96.777,-50.195 97.266,-51.27 97.266,-52.49C97.266,-55.029 95.361,-56.982 92.822,-56.982C91.602,-56.982 90.479,-56.494 89.648,-55.713L54.883,-20.166L20.068,-55.713C19.287,-56.494 18.164,-56.982 16.895,-56.982C14.355,-56.982 12.451,-55.029 12.451,-52.49C12.451,-51.27 12.94,-50.195 13.77,-49.316L51.563,-10.645C52.49,-9.717 53.613,-9.229 54.883,-9.229Z" style="fill:rgb(191,191,191);fill-rule:nonzero;"/>
    </g>
</svg>
