<?xml version="1.0" encoding="UTF-8" standalone="no"?>
<!DOCTYPE svg PUBLIC "-//W3C//DTD SVG 1.1//EN" "http://www.w3.org/Graphics/SVG/1.1/DTD/svg11.dtd">
<svg width="100%" height="100%" viewBox="0 0 133 90" version="1.1" xmlns="http://www.w3.org/2000/svg" xmlns:xlink="http://www.w3.org/1999/xlink" xml:space="preserve" xmlns:serif="http://www.serif.com/" style="fill-rule:evenodd;clip-rule:evenodd;stroke-linejoin:round;stroke-miterlimit:2;">
    <g id="Regular-M" transform="matrix(1,0,0,1,-10.498,80.9326)">
        <path d="M114.648,7.08C116.113,8.594 118.457,8.691 119.971,7.08C121.533,5.469 121.436,3.271 119.971,1.758L38.33,-79.834C36.865,-81.299 34.424,-81.299 32.959,-79.834C31.543,-78.418 31.543,-75.928 32.959,-74.512L114.648,7.08ZM119.287,-7.031C133.545,-16.455 142.871,-29.395 142.871,-35.205C142.871,-45.117 115.771,-76.709 76.709,-76.709C68.408,-76.709 60.596,-75.293 53.516,-72.949L66.211,-60.254C69.434,-61.621 72.949,-62.402 76.709,-62.402C91.797,-62.402 104.004,-50.44 104.004,-35.205C104.004,-31.494 103.174,-27.93 101.709,-24.805L119.287,-7.031ZM76.709,6.299C85.742,6.299 94.141,4.639 101.514,1.904L88.721,-10.889C85.107,-9.033 81.006,-8.008 76.709,-8.008C61.475,-8.008 49.414,-20.361 49.365,-35.205C49.365,-39.6 50.391,-43.75 52.197,-47.412L35.498,-64.209C20.117,-54.59 10.498,-41.065 10.498,-35.205C10.498,-25.342 38.086,6.299 76.709,6.299ZM92.236,-36.231C92.236,-44.775 85.352,-51.709 76.709,-51.709C76.074,-51.709 75.44,-51.66 74.854,-51.611L92.139,-34.326C92.188,-34.912 92.236,-35.596 92.236,-36.231ZM61.133,-36.328C61.133,-27.734 68.213,-20.801 76.758,-20.801C77.441,-20.801 78.076,-20.85 78.76,-20.898L61.231,-38.428C61.182,-37.744 61.133,-37.012 61.133,-36.328Z" style="fill:rgb(191,191,191);fill-rule:nonzero;"/>
    </g>
</svg>
