<?xml version="1.0" encoding="UTF-8" standalone="no"?>
<!DOCTYPE svg PUBLIC "-//W3C//DTD SVG 1.1//EN" "http://www.w3.org/Graphics/SVG/1.1/DTD/svg11.dtd">
<svg width="100%" height="100%" viewBox="0 0 119 119" version="1.1" xmlns="http://www.w3.org/2000/svg" xmlns:xlink="http://www.w3.org/1999/xlink" xml:space="preserve" xmlns:serif="http://www.serif.com/" style="fill-rule:evenodd;clip-rule:evenodd;stroke-linejoin:round;stroke-miterlimit:2;">
    <g id="Regular-M" transform="matrix(1,0,0,1,-8.74023,94.5801)">
        <path d="M12.256,-31.69L22.168,-31.69C23.877,-9.033 41.992,9.18 64.6,10.889L64.6,20.654C64.6,22.607 66.162,24.17 68.115,24.17C70.068,24.17 71.582,22.607 71.582,20.654L71.582,10.889C94.238,9.18 112.354,-9.033 114.062,-31.69L123.975,-31.69C125.928,-31.69 127.49,-33.252 127.49,-35.205C127.49,-37.158 125.928,-38.672 123.975,-38.672L114.062,-38.672C112.354,-61.328 94.238,-79.541 71.582,-81.25L71.582,-91.065C71.582,-93.018 70.068,-94.58 68.115,-94.58C66.162,-94.58 64.6,-93.018 64.6,-91.065L64.6,-81.25C41.992,-79.541 23.877,-61.328 22.168,-38.672L12.256,-38.672C10.303,-38.672 8.74,-37.158 8.74,-35.205C8.74,-33.252 10.303,-31.69 12.256,-31.69ZM68.115,-54.492C70.068,-54.492 71.582,-56.055 71.582,-58.008L71.582,-73.291C89.941,-71.631 104.248,-57.227 105.811,-38.672L90.918,-38.672C88.965,-38.672 87.402,-37.158 87.402,-35.205C87.402,-33.252 88.965,-31.69 90.918,-31.69L105.811,-31.69C104.248,-13.184 89.941,1.221 71.582,2.881L71.582,-12.402C71.582,-14.355 70.068,-15.869 68.115,-15.869C66.162,-15.869 64.6,-14.355 64.6,-12.402L64.6,2.881C46.289,1.221 31.982,-13.184 30.42,-31.69L45.313,-31.69C47.266,-31.69 48.828,-33.252 48.828,-35.205C48.828,-37.158 47.266,-38.672 45.313,-38.672L30.42,-38.672C31.982,-57.227 46.289,-71.631 64.6,-73.291L64.6,-58.008C64.6,-56.055 66.162,-54.492 68.115,-54.492Z" style="fill:rgb(0,232,255);fill-rule:nonzero;"/>
    </g>
</svg>
