<?xml version="1.0" encoding="UTF-8" standalone="no"?>
<!DOCTYPE svg PUBLIC "-//W3C//DTD SVG 1.1//EN" "http://www.w3.org/Graphics/SVG/1.1/DTD/svg11.dtd">
<svg width="100%" height="100%" viewBox="0 0 142 94" version="1.1" xmlns="http://www.w3.org/2000/svg" xmlns:xlink="http://www.w3.org/1999/xlink" xml:space="preserve" xmlns:serif="http://www.serif.com/" style="fill-rule:evenodd;clip-rule:evenodd;stroke-linejoin:round;stroke-miterlimit:2;">
    <g id="Regular-M" transform="matrix(1,0,0,1,-12.4512,82.3242)">
        <path d="M12.451,-35.303C12.451,-25.342 19.482,-19.873 27.393,-19.873C30.713,-19.873 33.203,-20.801 36.182,-22.656C38.965,-24.365 40.967,-23.34 40.967,-20.947L40.967,-2.881C40.967,6.738 46.045,11.67 55.762,11.67L68.799,11.67C71.143,11.67 72.168,9.717 70.508,6.934C68.604,3.955 67.676,1.465 67.676,-1.855C67.676,-9.766 73.193,-16.797 83.154,-16.797C93.115,-16.797 98.584,-9.766 98.584,-1.855C98.584,1.465 97.656,3.955 95.801,6.934C94.141,9.717 95.117,11.67 97.51,11.67L110.547,11.67C120.264,11.67 125.342,6.738 125.342,-2.881L125.342,-20.947C125.342,-23.34 127.344,-24.365 130.078,-22.656C133.105,-20.801 135.596,-19.873 138.867,-19.873C146.826,-19.873 153.857,-25.342 153.857,-35.303C153.857,-45.313 146.826,-50.781 138.867,-50.781C135.596,-50.781 133.105,-49.853 130.078,-47.998C127.344,-46.289 125.342,-47.315 125.342,-49.707L125.342,-67.773C125.342,-77.344 120.264,-82.324 110.547,-82.324L97.51,-82.324C95.117,-82.324 94.141,-80.322 95.801,-77.539C97.656,-74.561 98.584,-72.07 98.584,-68.75C98.584,-60.84 93.115,-53.809 83.154,-53.809C73.193,-53.809 67.676,-60.84 67.676,-68.75C67.676,-72.07 68.604,-74.561 70.508,-77.539C72.168,-80.322 71.143,-82.324 68.799,-82.324L55.762,-82.324C46.045,-82.324 40.967,-77.344 40.967,-67.773L40.967,-49.707C40.967,-47.315 38.965,-46.289 36.182,-47.998C33.203,-49.853 30.713,-50.781 27.393,-50.781C19.482,-50.781 12.451,-45.313 12.451,-35.303Z" style="fill:rgb(191,191,191);fill-rule:nonzero;"/>
    </g>
</svg>
