<?xml version="1.0" encoding="UTF-8" standalone="no"?>
<!DOCTYPE svg PUBLIC "-//W3C//DTD SVG 1.1//EN" "http://www.w3.org/Graphics/SVG/1.1/DTD/svg11.dtd">
<svg width="100%" height="100%" viewBox="0 0 87 111" version="1.1" xmlns="http://www.w3.org/2000/svg" xmlns:xlink="http://www.w3.org/1999/xlink" xml:space="preserve" xmlns:serif="http://www.serif.com/" style="fill-rule:evenodd;clip-rule:evenodd;stroke-linejoin:round;stroke-miterlimit:2;">
    <g id="Regular-M" transform="matrix(1,0,0,1,-12.4512,93.9453)">
        <path d="M55.811,-57.91C57.91,-57.91 59.668,-59.668 59.668,-61.719L59.668,-75.928L59.375,-83.252L62.647,-79.785L70.068,-71.875C70.752,-71.094 71.777,-70.703 72.705,-70.703C74.707,-70.703 76.269,-72.168 76.269,-74.17C76.269,-75.195 75.83,-75.977 75.098,-76.709L58.594,-92.627C57.617,-93.604 56.787,-93.945 55.811,-93.945C54.785,-93.945 53.955,-93.604 52.978,-92.627L36.475,-76.709C35.742,-75.977 35.303,-75.195 35.303,-74.17C35.303,-72.168 36.768,-70.703 38.818,-70.703C39.746,-70.703 40.82,-71.094 41.504,-71.875L48.926,-79.785L52.197,-83.252L51.904,-75.928L51.904,-61.719C51.904,-59.668 53.711,-57.91 55.811,-57.91ZM27.783,16.26L83.789,16.26C93.994,16.26 99.121,11.182 99.121,1.123L99.121,-46.631C99.121,-56.69 93.994,-61.768 83.789,-61.768L60.791,-61.768L60.791,-25.781C60.791,-23.096 58.496,-20.898 55.811,-20.898C53.076,-20.898 50.781,-23.096 50.781,-25.781L50.781,-61.768L27.783,-61.768C17.578,-61.768 12.451,-56.69 12.451,-46.631L12.451,1.123C12.451,11.182 17.578,16.26 27.783,16.26Z" style="fill:rgb(191,191,191);fill-rule:nonzero;"/>
    </g>
</svg>
