<?xml version="1.0" encoding="UTF-8" standalone="no"?>
<!DOCTYPE svg PUBLIC "-//W3C//DTD SVG 1.1//EN" "http://www.w3.org/Graphics/SVG/1.1/DTD/svg11.dtd">
<svg width="100%" height="100%" viewBox="0 0 100 100" version="1.1" xmlns="http://www.w3.org/2000/svg" xmlns:xlink="http://www.w3.org/1999/xlink" xml:space="preserve" xmlns:serif="http://www.serif.com/" style="fill-rule:evenodd;clip-rule:evenodd;stroke-linejoin:round;stroke-miterlimit:2;">
    <g id="Regular-M" transform="matrix(1,0,0,1,-8.74023,85.0586)">
        <path d="M58.545,14.551C85.791,14.551 108.35,-8.057 108.35,-35.254C108.35,-62.5 85.742,-85.059 58.496,-85.059C31.299,-85.059 8.74,-62.5 8.74,-35.254C8.74,-8.057 31.348,14.551 58.545,14.551ZM44.922,-44.678C44.727,-46.582 43.897,-48.291 42.578,-49.512C46.875,-60.4 53.711,-70.264 62.647,-78.223C63.33,-78.174 64.014,-78.076 64.697,-77.979C58.301,-67.188 54.443,-55.078 53.516,-42.529C50.586,-43.018 47.705,-43.75 44.922,-44.678ZM22.412,-58.691C29.395,-69.336 40.967,-76.856 54.15,-78.223C46.728,-70.459 40.967,-61.426 37.061,-51.611C35.693,-51.611 34.228,-51.123 32.959,-50.293C29.15,-52.637 25.586,-55.469 22.412,-58.691ZM67.676,-58.106C67.725,-53.662 68.262,-49.268 69.287,-45.02C68.408,-44.141 67.773,-43.018 67.432,-41.797C66.211,-41.699 64.99,-41.65 63.721,-41.65C62.256,-41.65 60.791,-41.699 59.375,-41.797C60.205,-53.76 63.867,-65.186 69.971,-75.293C68.359,-69.775 67.627,-64.014 67.676,-58.106ZM73.584,-58.154C73.535,-63.77 74.316,-69.385 75.977,-74.658C85.547,-70.361 93.359,-62.598 97.754,-53.076C92.627,-49.17 86.865,-46.24 80.713,-44.287C79.394,-46.094 77.246,-47.266 74.805,-47.315C74.072,-50.83 73.633,-54.443 73.584,-58.154ZM15.381,-35.254C15.381,-41.65 16.797,-47.705 19.385,-53.223C22.559,-50.195 26.025,-47.51 29.785,-45.264C29.688,-44.873 29.688,-44.434 29.688,-43.994C29.688,-41.406 30.957,-39.111 32.959,-37.695C31.934,-32.617 31.397,-27.344 31.397,-22.022C25.781,-24.756 20.41,-28.223 15.479,-32.373C15.43,-33.35 15.381,-34.277 15.381,-35.254ZM101.709,-35.254C101.709,-31.055 101.074,-26.953 99.902,-23.096C97.07,-21.582 94.141,-20.264 91.113,-19.141C86.426,-23.389 82.519,-28.467 79.59,-34.082C80.908,-35.205 81.787,-36.768 82.129,-38.525C88.477,-40.478 94.482,-43.408 99.951,-47.315C101.074,-43.457 101.709,-39.404 101.709,-35.254ZM53.272,-36.279C53.272,-29.932 54.004,-23.682 55.42,-17.578C54.59,-16.943 53.906,-16.113 53.418,-15.185C47.949,-16.016 42.529,-17.432 37.305,-19.434C37.158,-25.244 37.598,-30.957 38.721,-36.475C40.478,-36.816 41.992,-37.744 43.115,-39.063C46.387,-37.94 49.805,-37.109 53.272,-36.572L53.272,-36.279ZM63.721,-35.742C65.283,-35.742 66.797,-35.791 68.262,-35.938C69.434,-33.984 71.484,-32.617 73.877,-32.324C76.66,-26.709 80.371,-21.533 84.815,-17.09C79.053,-15.479 73.193,-14.6 67.285,-14.404C66.26,-16.992 63.916,-18.848 61.084,-19.19C59.863,-24.609 59.18,-30.225 59.18,-35.889C60.693,-35.791 62.207,-35.742 63.721,-35.742ZM16.992,-23.682C21.582,-20.41 26.465,-17.627 31.592,-15.43C31.787,-10.205 32.568,-5.029 33.936,0.049C25.83,-5.664 19.727,-14.014 16.992,-23.682ZM58.545,7.91C52.539,7.91 46.728,6.641 41.504,4.297C39.453,-1.27 38.135,-7.08 37.647,-13.037C42.627,-11.328 47.705,-10.059 52.93,-9.326C53.857,-6.348 56.592,-4.199 59.863,-4.053C61.523,-0.146 63.525,3.662 65.82,7.275C63.428,7.666 61.035,7.91 58.545,7.91ZM65.43,-6.104C66.113,-6.787 66.699,-7.617 67.09,-8.496C74.805,-8.74 82.519,-10.01 89.941,-12.451C91.016,-11.572 92.188,-10.742 93.311,-9.912C87.988,-2.686 80.518,2.881 71.826,5.762C69.336,2.002 67.188,-2.002 65.43,-6.104Z" style="fill:rgb(191,191,191);fill-rule:nonzero;"/>
    </g>
</svg>
