<?xml version="1.0" encoding="UTF-8" standalone="no"?>
<!DOCTYPE svg PUBLIC "-//W3C//DTD SVG 1.1//EN" "http://www.w3.org/Graphics/SVG/1.1/DTD/svg11.dtd">
<svg width="100%" height="100%" viewBox="0 0 100 100" version="1.1" xmlns="http://www.w3.org/2000/svg" xmlns:xlink="http://www.w3.org/1999/xlink" xml:space="preserve" xmlns:serif="http://www.serif.com/" style="fill-rule:evenodd;clip-rule:evenodd;stroke-linejoin:round;stroke-miterlimit:2;">
    <g id="Regular-M" transform="matrix(1,0,0,1,-8.74023,85.0586)">
        <path d="M62.012,-42.481C65.625,-45.117 68.018,-47.803 70.068,-51.27C75.684,-60.84 74.707,-72.217 67.334,-84.18C64.502,-84.766 61.523,-85.059 58.496,-85.059C47.315,-85.059 36.865,-81.201 28.516,-74.805C41.357,-73.291 51.416,-67.285 57.324,-57.031C60.01,-52.295 61.426,-47.705 62.012,-42.481ZM78.272,-32.91C89.307,-32.91 98.731,-39.307 105.371,-51.514C100.879,-64.697 90.723,-75.586 77.832,-81.055C82.959,-69.19 82.764,-57.52 76.856,-47.412C73.975,-42.383 70.361,-38.818 65.967,-35.693C69.824,-33.984 73.584,-32.91 78.272,-32.91ZM9.18,-28.76C16.992,-39.258 27.295,-45.02 39.111,-45.02C44.58,-45.02 49.316,-43.897 54.15,-41.748C53.662,-46.191 52.539,-49.609 50.488,-53.174C44.971,-62.793 34.619,-67.676 20.654,-67.236C13.232,-58.594 8.74,-47.412 8.74,-35.254C8.74,-33.057 8.936,-30.908 9.18,-28.76ZM96.045,-2.93C103.662,-11.621 108.35,-22.949 108.35,-35.254C108.35,-37.158 108.252,-38.965 108.008,-40.82C100.195,-30.615 89.941,-25.049 78.272,-25.049C72.51,-25.049 67.578,-26.318 62.695,-28.516C63.184,-24.561 64.209,-20.947 66.406,-17.139C71.875,-7.568 82.227,-2.637 96.045,-2.93ZM38.867,10.4C33.789,-1.514 34.082,-13.33 39.99,-23.486C42.773,-28.223 46.143,-31.787 50.342,-34.912C46.484,-36.475 43.066,-37.158 39.111,-37.158C28.027,-37.158 18.555,-30.615 11.865,-18.066C16.602,-5.371 26.465,5.029 38.867,10.4ZM58.545,14.551C69.531,14.551 79.785,10.84 88.086,4.639C75.342,3.027 65.43,-3.125 59.57,-13.281C56.738,-18.262 55.371,-23.096 54.834,-28.467C51.611,-26.025 49.023,-23.291 46.826,-19.58C41.162,-9.912 42.139,1.563 49.414,13.574C52.393,14.209 55.42,14.551 58.545,14.551Z" style="fill:rgb(191,191,191);fill-rule:nonzero;"/>
    </g>
</svg>
