<?xml version="1.0" encoding="UTF-8" standalone="no"?>
<!DOCTYPE svg PUBLIC "-//W3C//DTD SVG 1.1//EN" "http://www.w3.org/Graphics/SVG/1.1/DTD/svg11.dtd">
<svg width="100%" height="100%" viewBox="0 0 111 109" version="1.1" xmlns="http://www.w3.org/2000/svg" xmlns:xlink="http://www.w3.org/1999/xlink" xml:space="preserve" xmlns:serif="http://www.serif.com/" style="fill-rule:evenodd;clip-rule:evenodd;stroke-linejoin:round;stroke-miterlimit:2;">
    <g id="Regular-M" transform="matrix(1,0,0,1,-1.75781,88.3301)">
        <path d="M62.109,-26.465C64.063,-26.465 65.967,-27.1 68.311,-28.467L106.494,-50.635C110.449,-52.93 112.012,-54.736 112.012,-57.422C112.012,-60.059 110.449,-61.865 106.494,-64.16L68.311,-86.328C65.967,-87.695 64.063,-88.33 62.109,-88.33C60.107,-88.33 58.252,-87.695 55.908,-86.328L17.676,-64.16C13.721,-61.865 12.207,-60.059 12.207,-57.422C12.207,-54.736 13.721,-52.93 17.676,-50.635L55.908,-28.467C58.252,-27.1 60.107,-26.465 62.109,-26.465ZM62.109,-2.393C63.867,-2.393 65.381,-3.223 67.432,-4.443L109.375,-29.199C111.182,-30.322 112.012,-31.934 112.012,-33.447C112.012,-35.449 110.547,-37.109 109.18,-37.744L63.965,-11.621C63.281,-11.23 62.647,-10.938 62.109,-10.938C61.572,-10.938 60.938,-11.23 60.205,-11.621L56.934,-13.525C57.666,-10.547 57.91,-7.08 57.568,-4.053L59.18,-3.125C60.205,-2.686 61.084,-2.393 62.109,-2.393ZM26.563,18.945C39.99,18.945 51.367,7.715 51.367,-5.859C51.367,-19.434 40.186,-30.664 26.563,-30.664C12.988,-30.664 1.758,-19.434 1.758,-5.859C1.758,7.813 12.988,18.945 26.563,18.945ZM16.553,8.643C14.99,8.643 13.867,7.568 13.867,6.055C13.867,5.469 13.965,4.932 14.16,4.346L22.754,-18.848C23.438,-20.606 24.805,-21.533 26.611,-21.533C28.418,-21.533 29.834,-20.606 30.518,-18.848L39.111,4.346C39.307,4.932 39.453,5.469 39.453,6.055C39.453,7.568 38.33,8.643 36.67,8.643C35.352,8.643 34.424,7.91 33.936,6.348L31.836,0.146L21.436,0.146L19.336,6.348C18.799,7.91 17.92,8.643 16.553,8.643ZM62.109,20.068C63.867,20.068 65.381,19.238 67.432,18.018L109.375,-6.738C111.133,-7.764 112.012,-9.473 112.012,-10.986C112.012,-12.988 110.547,-14.6 109.18,-15.283L63.965,10.889C63.281,11.279 62.647,11.572 62.109,11.572C61.572,11.572 60.938,11.279 60.205,10.889L54.834,7.764C53.711,10.156 52.246,12.402 50.488,14.355L56.787,18.018C58.838,19.238 60.303,20.068 62.109,20.068ZM22.998,-4.443L30.273,-4.443L26.611,-15.039L22.998,-4.443Z" style="fill:rgb(191,191,191);fill-rule:nonzero;"/>
    </g>
</svg>
