<?xml version="1.0" encoding="UTF-8" standalone="no"?>
<!DOCTYPE svg PUBLIC "-//W3C//DTD SVG 1.1//EN" "http://www.w3.org/Graphics/SVG/1.1/DTD/svg11.dtd">
<svg width="100%" height="100%" viewBox="0 0 144 181" version="1.1" xmlns="http://www.w3.org/2000/svg" xmlns:xlink="http://www.w3.org/1999/xlink" xml:space="preserve" xmlns:serif="http://www.serif.com/" style="fill-rule:evenodd;clip-rule:evenodd;stroke-linejoin:round;stroke-miterlimit:2;">
    <g transform="matrix(1.5,0,0,1.5,-14.9414,141.048)">
        <g id="Regular-M">
            <path d="M78.662,-72.656L78.662,-78.613L79.932,-78.613C90.869,-78.613 97.754,-70.996 97.754,-60.254C97.754,-53.76 95.752,-51.318 95.606,-49.512C95.557,-48.193 96.045,-47.363 97.168,-46.826C98.682,-46.094 100.439,-46.777 101.318,-48.193C102.783,-50.781 103.857,-55.078 103.857,-60.303C103.857,-74.609 94.336,-84.229 79.981,-84.229L78.662,-84.229L78.662,-90.625C78.662,-93.945 75.635,-94.971 72.949,-93.115L59.668,-84.131C57.959,-82.959 57.91,-80.322 59.668,-79.15L72.949,-70.215C75.586,-68.408 78.662,-69.434 78.662,-72.656ZM46.094,-10.84L73.047,-10.84L73.047,10.254C73.047,12.647 74.609,14.307 76.953,14.307C79.346,14.307 80.908,12.647 80.908,10.254L80.908,-10.84L101.66,-10.84C103.955,-10.84 105.518,-12.305 105.518,-14.551C105.518,-16.748 103.955,-18.213 101.66,-18.213L80.908,-18.213L80.908,-44.678C80.908,-52.637 77.637,-55.908 69.678,-55.908L42.725,-55.908L42.725,-76.709C42.725,-79.102 41.162,-80.762 38.818,-80.762C36.426,-80.762 34.863,-79.102 34.863,-76.709L34.863,-55.908L13.77,-55.908C11.523,-55.908 9.961,-54.443 9.961,-52.197C9.961,-50 11.523,-48.535 13.77,-48.535L34.863,-48.535L34.863,-22.07C34.863,-14.111 38.135,-10.84 46.094,-10.84ZM47.315,-18.213C43.897,-18.213 42.725,-19.385 42.725,-22.803L42.725,-48.535L68.457,-48.535C71.875,-48.535 73.047,-47.363 73.047,-43.945L73.047,-18.213L47.315,-18.213ZM37.061,5.225L37.061,11.816L35.84,11.816C24.902,11.816 18.018,4.199 18.018,-6.543C18.018,-13.037 20.02,-15.479 20.117,-17.236C20.215,-18.604 19.678,-19.434 18.604,-19.971C17.09,-20.703 15.332,-20.02 14.453,-18.604C12.988,-16.016 11.914,-11.719 11.914,-6.494C11.914,7.813 21.436,17.432 35.791,17.432L37.061,17.432L37.061,23.193C37.061,26.514 40.137,27.539 42.822,25.684L56.103,16.699C57.813,15.527 57.861,12.891 56.103,11.719L42.822,2.783C40.186,0.977 37.061,2.002 37.061,5.225Z" style="fill:rgb(191,191,191);fill-rule:nonzero;"/>
        </g>
    </g>
</svg>
