<?xml version="1.0" encoding="UTF-8" standalone="no"?>
<!DOCTYPE svg PUBLIC "-//W3C//DTD SVG 1.1//EN" "http://www.w3.org/Graphics/SVG/1.1/DTD/svg11.dtd">
<svg width="100%" height="100%" viewBox="0 0 102 85" version="1.1" xmlns="http://www.w3.org/2000/svg" xmlns:xlink="http://www.w3.org/1999/xlink" xml:space="preserve" xmlns:serif="http://www.serif.com/" style="fill-rule:evenodd;clip-rule:evenodd;stroke-linejoin:round;stroke-miterlimit:2;">
    <g id="Regular-M" transform="matrix(1,0,0,1,-12.4512,74.3164)">
        <path d="M41.26,-8.74C41.26,-6.201 42.92,-4.688 45.557,-4.688L56.201,-4.688C58.838,-4.688 60.498,-6.201 60.498,-8.74L60.498,-70.264C60.498,-72.803 58.838,-74.316 56.201,-74.316L45.557,-74.316C42.92,-74.316 41.26,-72.803 41.26,-70.264L41.26,-8.74ZM66.211,-8.74C66.211,-6.201 67.822,-4.688 70.459,-4.688L81.152,-4.688C83.74,-4.688 85.4,-6.201 85.4,-8.74L85.4,-59.717C85.4,-62.305 83.74,-63.818 81.152,-63.818L70.459,-63.818C67.822,-63.818 66.211,-62.305 66.211,-59.717L66.211,-8.74ZM16.357,-8.74C16.357,-6.201 17.969,-4.688 20.654,-4.688L31.299,-4.688C33.887,-4.688 35.547,-6.201 35.547,-8.74L35.547,-49.121C35.547,-51.611 33.887,-53.223 31.299,-53.223L20.654,-53.223C17.969,-53.223 16.357,-51.611 16.357,-49.121L16.357,-8.74ZM91.113,-8.74C91.113,-6.201 92.725,-4.688 95.41,-4.688L106.055,-4.688C108.691,-4.688 110.352,-6.201 110.352,-8.74L110.352,-38.867C110.352,-41.406 108.691,-42.969 106.055,-42.969L95.41,-42.969C92.725,-42.969 91.113,-41.406 91.113,-38.867L91.113,-8.74ZM12.451,6.299C12.451,8.496 14.258,10.205 16.357,10.205L110.352,10.205C112.5,10.205 114.307,8.496 114.307,6.299C114.307,4.15 112.5,2.393 110.352,2.393L16.357,2.393C14.258,2.393 12.451,4.15 12.451,6.299Z" style="fill:rgb(191,191,191);fill-rule:nonzero;"/>
    </g>
</svg>
