<?xml version="1.0" encoding="UTF-8" standalone="no"?>
<!DOCTYPE svg PUBLIC "-//W3C//DTD SVG 1.1//EN" "http://www.w3.org/Graphics/SVG/1.1/DTD/svg11.dtd">
<svg width="100%" height="100%" viewBox="0 0 124 84" version="1.1" xmlns="http://www.w3.org/2000/svg" xmlns:xlink="http://www.w3.org/1999/xlink" xml:space="preserve" xmlns:serif="http://www.serif.com/" style="fill-rule:evenodd;clip-rule:evenodd;stroke-linejoin:round;stroke-miterlimit:2;">
    <g id="Regular-M" transform="matrix(1,0,0,1,-12.4512,77.002)">
        <path d="M20.654,6.641C29.688,6.641 43.457,-4.102 74.316,-4.102C105.127,-4.102 118.994,6.592 127.979,6.592C133.35,6.592 136.182,3.32 136.182,-2.1L136.182,-68.262C136.182,-73.731 133.35,-77.002 127.979,-77.002C118.994,-77.002 105.127,-66.26 74.316,-66.26C43.555,-66.26 29.688,-77.002 20.654,-77.002C15.283,-77.002 12.451,-73.731 12.451,-68.311L12.451,-2.051C12.451,3.369 15.283,6.641 20.654,6.641Z" style="fill:rgb(191,191,191);fill-rule:nonzero;"/>
    </g>
</svg>
