<?xml version="1.0" encoding="UTF-8" standalone="no"?>
<!DOCTYPE svg PUBLIC "-//W3C//DTD SVG 1.1//EN" "http://www.w3.org/Graphics/SVG/1.1/DTD/svg11.dtd">
<svg width="100%" height="100%" viewBox="0 0 99 85" version="1.1" xmlns="http://www.w3.org/2000/svg" xmlns:xlink="http://www.w3.org/1999/xlink" xml:space="preserve" xmlns:serif="http://www.serif.com/" style="fill-rule:evenodd;clip-rule:evenodd;stroke-linejoin:round;stroke-miterlimit:2;">
    <g id="Regular-M" transform="matrix(1,0,0,1,-12.4512,77.4414)">
        <path d="M16.113,-70.068L107.08,-70.068C109.131,-70.068 110.84,-71.68 110.84,-73.779C110.84,-75.83 109.131,-77.441 107.08,-77.441L16.113,-77.441C14.063,-77.441 12.451,-75.83 12.451,-73.779C12.451,-71.68 14.063,-70.068 16.113,-70.068ZM34.18,-44.482L89.063,-44.482C91.113,-44.482 92.773,-46.094 92.773,-48.193C92.773,-50.244 91.113,-51.856 89.063,-51.856L34.18,-51.856C32.08,-51.856 30.469,-50.244 30.469,-48.193C30.469,-46.094 32.08,-44.482 34.18,-44.482ZM16.113,-18.897L107.08,-18.897C109.131,-18.897 110.84,-20.557 110.84,-22.607C110.84,-24.658 109.131,-26.27 107.08,-26.27L16.113,-26.27C14.063,-26.27 12.451,-24.658 12.451,-22.607C12.451,-20.557 14.063,-18.897 16.113,-18.897ZM34.18,6.641L89.063,6.641C91.113,6.641 92.773,5.029 92.773,2.979C92.773,0.928 91.113,-0.732 89.063,-0.732L34.18,-0.732C32.08,-0.732 30.469,0.928 30.469,2.979C30.469,5.029 32.08,6.641 34.18,6.641Z" style="fill:rgb(191,191,191);fill-rule:nonzero;"/>
    </g>
</svg>
