<?xml version="1.0" encoding="UTF-8" standalone="no"?>
<!DOCTYPE svg PUBLIC "-//W3C//DTD SVG 1.1//EN" "http://www.w3.org/Graphics/SVG/1.1/DTD/svg11.dtd">
<svg width="100%" height="100%" viewBox="0 0 99 85" version="1.1" xmlns="http://www.w3.org/2000/svg" xmlns:xlink="http://www.w3.org/1999/xlink" xml:space="preserve" xmlns:serif="http://www.serif.com/" style="fill-rule:evenodd;clip-rule:evenodd;stroke-linejoin:round;stroke-miterlimit:2;">
    <g id="Regular-M" transform="matrix(1,0,0,1,-12.4512,77.4414)">
        <path d="M16.113,-70.068L107.08,-70.068C109.131,-70.068 110.84,-71.68 110.84,-73.779C110.84,-75.83 109.131,-77.441 107.08,-77.441L16.113,-77.441C14.063,-77.441 12.451,-75.83 12.451,-73.779C12.451,-71.68 14.063,-70.068 16.113,-70.068ZM52.197,-44.482L107.08,-44.482C109.131,-44.482 110.84,-46.094 110.84,-48.193C110.84,-50.244 109.131,-51.856 107.08,-51.856L52.197,-51.856C50.098,-51.856 48.486,-50.244 48.486,-48.193C48.486,-46.094 50.098,-44.482 52.197,-44.482ZM16.113,-18.897L107.08,-18.897C109.131,-18.897 110.84,-20.557 110.84,-22.607C110.84,-24.658 109.131,-26.27 107.08,-26.27L16.113,-26.27C14.063,-26.27 12.451,-24.658 12.451,-22.607C12.451,-20.557 14.063,-18.897 16.113,-18.897ZM52.197,6.641L107.08,6.641C109.131,6.641 110.84,5.029 110.84,2.979C110.84,0.928 109.131,-0.732 107.08,-0.732L52.197,-0.732C50.098,-0.732 48.486,0.928 48.486,2.979C48.486,5.029 50.098,6.641 52.197,6.641Z" style="fill:rgb(226,181,1);fill-rule:nonzero;"/>
    </g>
</svg>
