<?xml version="1.0" encoding="UTF-8" standalone="no"?>
<!DOCTYPE svg PUBLIC "-//W3C//DTD SVG 1.1//EN" "http://www.w3.org/Graphics/SVG/1.1/DTD/svg11.dtd">
<svg width="100%" height="100%" viewBox="0 0 111 73" version="1.1" xmlns="http://www.w3.org/2000/svg" xmlns:xlink="http://www.w3.org/1999/xlink" xml:space="preserve" xmlns:serif="http://www.serif.com/" style="fill-rule:evenodd;clip-rule:evenodd;stroke-linejoin:round;stroke-miterlimit:2;">
    <g id="Regular-M" transform="matrix(1,0,0,1,-12.4512,71.2402)">
        <path d="M16.699,0.83C19.19,0.83 20.41,-0.146 21.338,-2.832L27.637,-20.117L56.445,-20.117L62.744,-2.832C63.672,-0.146 64.893,0.83 67.334,0.83C70.019,0.83 71.729,-0.684 71.729,-3.174C71.729,-4.004 71.582,-4.736 71.191,-5.811L48.291,-66.748C47.168,-69.775 45.166,-71.24 42.041,-71.24C39.014,-71.24 36.963,-69.775 35.889,-66.797L12.988,-5.762C12.549,-4.688 12.451,-3.955 12.451,-3.125C12.451,-0.635 14.063,0.83 16.699,0.83ZM30.029,-27.588L41.895,-60.449L42.139,-60.449L54.004,-27.588L30.029,-27.588ZM97.412,0.781C104.883,0.781 111.816,-3.271 114.844,-9.521L114.99,-9.521L114.99,-3.174C114.99,-0.781 116.65,0.83 118.945,0.83C121.338,0.83 122.949,-0.781 122.949,-3.369L122.949,-35.693C122.949,-46.24 115.186,-53.027 102.93,-53.027C93.75,-53.027 86.231,-49.023 83.398,-42.822C82.861,-41.602 82.519,-40.43 82.519,-39.404C82.519,-37.256 84.082,-35.889 86.182,-35.889C87.695,-35.889 88.867,-36.426 89.6,-37.793C92.285,-43.408 96.436,-45.996 102.686,-45.996C110.254,-45.996 114.697,-41.797 114.697,-35.01L114.697,-30.908L99.121,-30.029C86.816,-29.346 80.029,-23.682 80.029,-14.697C80.029,-5.371 87.158,0.781 97.412,0.781ZM99.414,-6.006C92.871,-6.006 88.477,-9.57 88.477,-14.844C88.477,-19.971 92.578,-23.389 100.146,-23.877L114.697,-24.805L114.697,-19.727C114.697,-12.012 107.91,-6.006 99.414,-6.006Z" style="fill:rgb(226,181,1);fill-rule:nonzero;"/>
    </g>
</svg>
