<?xml version="1.0" encoding="UTF-8" standalone="no"?>
<!DOCTYPE svg PUBLIC "-//W3C//DTD SVG 1.1//EN" "http://www.w3.org/Graphics/SVG/1.1/DTD/svg11.dtd">
<svg width="100%" height="100%" viewBox="0 0 92 77" version="1.1" xmlns="http://www.w3.org/2000/svg" xmlns:xlink="http://www.w3.org/1999/xlink" xml:space="preserve" xmlns:serif="http://www.serif.com/" style="fill-rule:evenodd;clip-rule:evenodd;stroke-linejoin:round;stroke-miterlimit:2;">
    <g id="Regular-M" transform="matrix(1,0,0,1,-12.4512,73.4863)">
        <path d="M99.512,3.369C102.1,3.369 103.271,1.709 103.711,-0.293C104.004,-1.758 104.102,-4.199 104.102,-7.031C104.102,-30.664 94.678,-40.82 71.484,-40.82L37.353,-40.82L25.391,-40.137L41.846,-55.176L52.686,-66.211C53.467,-66.992 53.857,-68.115 53.857,-69.287C53.857,-71.729 52.002,-73.486 49.609,-73.486C48.438,-73.486 47.363,-73.096 46.289,-72.022L13.965,-39.746C12.988,-38.818 12.451,-37.647 12.451,-36.475C12.451,-35.254 12.988,-34.131 13.965,-33.154L46.387,-0.781C47.412,0.146 48.438,0.586 49.609,0.586C52.002,0.586 53.857,-1.172 53.857,-3.613C53.857,-4.785 53.467,-5.957 52.686,-6.738L41.846,-17.773L25.342,-32.813L37.353,-32.08L71.045,-32.08C88.965,-32.08 95.264,-24.707 95.264,-6.592C95.264,-4.297 95.166,-2.686 95.166,-0.977C95.166,1.611 96.973,3.369 99.512,3.369Z" style="fill:rgb(226,181,1);fill-rule:nonzero;"/>
    </g>
</svg>
