<?xml version="1.0" encoding="UTF-8" standalone="no"?>
<!DOCTYPE svg PUBLIC "-//W3C//DTD SVG 1.1//EN" "http://www.w3.org/Graphics/SVG/1.1/DTD/svg11.dtd">
<svg width="100%" height="100%" viewBox="0 0 78 105" version="1.1" xmlns="http://www.w3.org/2000/svg" xmlns:xlink="http://www.w3.org/1999/xlink" xml:space="preserve" xmlns:serif="http://www.serif.com/" style="fill-rule:evenodd;clip-rule:evenodd;stroke-linejoin:round;stroke-miterlimit:2;">
    <g id="Regular-M" transform="matrix(1,0,0,1,-23.877,89.1602)">
        <path d="M23.877,-19.043C23.877,2.49 37.988,15.234 57.373,15.234C72.9,15.234 82.519,8.74 88.916,-4.297C92.676,-11.523 95.557,-20.215 98.633,-30.273C99.902,-34.375 101.709,-39.6 101.709,-41.943C101.709,-44.58 99.805,-46.338 97.022,-46.338C93.945,-46.338 92.09,-44.385 89.844,-39.746L83.057,-25.488C82.373,-23.926 81.592,-23.34 80.811,-23.34C79.785,-23.34 79.102,-23.926 79.102,-25.635L79.102,-76.856C79.102,-79.736 76.758,-82.08 73.877,-82.08C70.996,-82.08 68.652,-79.736 68.652,-76.856L68.652,-40.234C67.334,-40.723 65.869,-41.113 64.307,-41.406L64.307,-83.887C64.307,-86.768 61.963,-89.16 59.082,-89.16C56.201,-89.16 53.809,-86.768 53.809,-83.887L53.809,-41.943C52.295,-41.846 50.732,-41.602 49.219,-41.357L49.219,-79.736C49.219,-82.617 46.875,-84.961 43.994,-84.961C41.113,-84.961 38.77,-82.617 38.77,-79.736L38.77,-38.037C37.158,-37.256 35.693,-36.426 34.375,-35.547L34.375,-64.551C34.375,-67.432 32.031,-69.775 29.15,-69.775C26.27,-69.775 23.877,-67.432 23.877,-64.551L23.877,-19.043Z" style="fill:rgb(226,181,1);fill-rule:nonzero;"/>
    </g>
</svg>
