<?xml version="1.0" encoding="UTF-8" standalone="no"?>
<!DOCTYPE svg PUBLIC "-//W3C//DTD SVG 1.1//EN" "http://www.w3.org/Graphics/SVG/1.1/DTD/svg11.dtd">
<svg width="100%" height="100%" viewBox="0 0 100 100" version="1.1" xmlns="http://www.w3.org/2000/svg" xmlns:xlink="http://www.w3.org/1999/xlink" xml:space="preserve" xmlns:serif="http://www.serif.com/" style="fill-rule:evenodd;clip-rule:evenodd;stroke-linejoin:round;stroke-miterlimit:2;">
    <g id="Regular-M" transform="matrix(1,0,0,1,-8.74023,85.0586)">
        <path d="M58.496,-76.758C62.94,-76.758 67.236,-76.074 71.289,-74.756L74.414,-82.373C69.385,-84.082 64.014,-85.059 58.496,-85.059C52.978,-85.059 47.559,-84.082 42.529,-82.373L45.752,-74.756C49.756,-76.074 54.053,-76.758 58.496,-76.758ZM95.508,-54.199L103.076,-57.324C98.193,-66.992 90.234,-74.951 80.566,-79.834L77.441,-72.266C85.156,-68.311 91.553,-61.963 95.508,-54.199ZM39.551,-72.266L36.426,-79.785C26.758,-74.951 18.799,-66.992 13.965,-57.324L21.582,-54.15C25.488,-61.914 31.836,-68.262 39.551,-72.266ZM58.545,0.537C78.32,0.537 94.336,-15.479 94.336,-35.254C94.336,-55.029 78.32,-71.045 58.545,-71.045C38.77,-71.045 22.754,-55.029 22.754,-35.254C22.754,-15.479 38.77,0.537 58.545,0.537ZM100.049,-35.254C100.049,-30.811 99.365,-26.514 98.096,-22.51L105.664,-19.287C107.373,-24.316 108.35,-29.736 108.35,-35.254C108.35,-40.82 107.373,-46.191 105.664,-51.221L98.047,-47.998C99.365,-43.994 100.049,-39.697 100.049,-35.254ZM17.09,-35.254C17.09,-39.697 17.773,-43.994 19.043,-47.949L11.377,-51.172C9.717,-46.143 8.74,-40.82 8.74,-35.254C8.74,-29.736 9.717,-24.365 11.426,-19.336L19.043,-22.559C17.773,-26.514 17.09,-30.811 17.09,-35.254ZM77.441,1.709L80.566,9.326C90.283,4.443 98.242,-3.516 103.027,-13.184L95.557,-16.309C91.602,-8.545 85.205,-2.246 77.441,1.709ZM21.582,-16.309L14.014,-13.184C18.897,-3.516 26.758,4.443 36.426,9.277L39.551,1.66C31.836,-2.295 25.488,-8.594 21.582,-16.309ZM58.545,6.25C54.053,6.25 49.756,5.566 45.752,4.248L42.578,11.865C47.607,13.574 53.027,14.551 58.545,14.551C64.063,14.551 69.434,13.574 74.414,11.914L71.24,4.297C67.236,5.566 62.988,6.25 58.545,6.25Z" style="fill:rgb(0,232,255);fill-rule:nonzero;"/>
    </g>
</svg>
