<?xml version="1.0" encoding="UTF-8" standalone="no"?>
<!DOCTYPE svg PUBLIC "-//W3C//DTD SVG 1.1//EN" "http://www.w3.org/Graphics/SVG/1.1/DTD/svg11.dtd">
<svg width="100%" height="100%" viewBox="0 0 100 100" version="1.1" xmlns="http://www.w3.org/2000/svg" xmlns:xlink="http://www.w3.org/1999/xlink" xml:space="preserve" xmlns:serif="http://www.serif.com/" style="fill-rule:evenodd;clip-rule:evenodd;stroke-linejoin:round;stroke-miterlimit:2;">
    <g id="Regular-M" transform="matrix(1,0,0,1,-8.74023,85.0586)">
        <path d="M58.545,14.551C85.791,14.551 108.35,-8.057 108.35,-35.254C108.35,-62.5 85.742,-85.059 58.496,-85.059C31.299,-85.059 8.74,-62.5 8.74,-35.254C8.74,-8.057 31.348,14.551 58.545,14.551ZM58.057,-53.076C54.395,-53.076 51.465,-56.006 51.465,-59.717C51.465,-63.428 54.395,-66.357 58.057,-66.357C61.719,-66.357 64.6,-63.428 64.6,-59.717C64.6,-56.006 61.719,-53.076 58.057,-53.076ZM49.707,-7.471C47.607,-7.471 45.996,-8.984 45.996,-11.084C45.996,-13.037 47.607,-14.648 49.707,-14.648L55.908,-14.648L55.908,-37.598L50.537,-37.598C48.486,-37.598 46.875,-39.111 46.875,-41.211C46.875,-43.164 48.486,-44.775 50.537,-44.775L60.01,-44.775C62.598,-44.775 63.965,-42.92 63.965,-40.186L63.965,-14.648L70.166,-14.648C72.266,-14.648 73.877,-13.037 73.877,-11.084C73.877,-8.984 72.266,-7.471 70.166,-7.471L49.707,-7.471Z" style="fill:rgb(191,191,191);fill-rule:nonzero;"/>
    </g>
</svg>
