<?xml version="1.0" encoding="UTF-8" standalone="no"?>
<!DOCTYPE svg PUBLIC "-//W3C//DTD SVG 1.1//EN" "http://www.w3.org/Graphics/SVG/1.1/DTD/svg11.dtd">
<svg width="100%" height="100%" viewBox="0 0 100 100" version="1.1" xmlns="http://www.w3.org/2000/svg" xmlns:xlink="http://www.w3.org/1999/xlink" xml:space="preserve" xmlns:serif="http://www.serif.com/" style="fill-rule:evenodd;clip-rule:evenodd;stroke-linejoin:round;stroke-miterlimit:2;">
    <g id="Regular-M" transform="matrix(1,0,0,1,-8.74023,85.0586)">
        <path d="M58.545,14.551C85.791,14.551 108.35,-8.008 108.35,-35.254C108.35,-62.451 85.742,-85.059 58.496,-85.059C31.299,-85.059 8.74,-62.451 8.74,-35.254C8.74,-8.008 31.348,14.551 58.545,14.551ZM58.447,-35.254L37.695,0.732C25.342,-6.445 17.09,-19.824 17.09,-35.254L58.447,-35.254L37.744,-71.24C43.799,-74.756 50.928,-76.758 58.496,-76.758C66.065,-76.758 73.144,-74.756 79.248,-71.24L58.447,-35.254L100.049,-35.254C100.098,-19.775 91.748,-6.348 79.297,0.781L58.447,-35.254Z" style="fill:rgb(0,232,255);fill-rule:nonzero;"/>
    </g>
</svg>
