<?xml version="1.0" encoding="UTF-8" standalone="no"?>
<!DOCTYPE svg PUBLIC "-//W3C//DTD SVG 1.1//EN" "http://www.w3.org/Graphics/SVG/1.1/DTD/svg11.dtd">
<svg width="100%" height="100%" viewBox="0 0 99 59" version="1.1" xmlns="http://www.w3.org/2000/svg" xmlns:xlink="http://www.w3.org/1999/xlink" xml:space="preserve" xmlns:serif="http://www.serif.com/" style="fill-rule:evenodd;clip-rule:evenodd;stroke-linejoin:round;stroke-miterlimit:2;">
    <g id="Regular-M" transform="matrix(1,0,0,1,-12.4512,64.3555)">
        <path d="M16.357,-56.494L107.324,-56.494C109.521,-56.494 111.23,-58.203 111.23,-60.4C111.23,-62.598 109.521,-64.356 107.324,-64.356L16.357,-64.356C14.16,-64.356 12.451,-62.598 12.451,-60.4C12.451,-58.203 14.16,-56.494 16.357,-56.494ZM26.66,-31.348L97.315,-31.348C99.512,-31.348 101.221,-33.057 101.221,-35.254C101.221,-37.451 99.512,-39.209 97.315,-39.209L26.66,-39.209C24.463,-39.209 22.705,-37.451 22.705,-35.254C22.705,-33.057 24.463,-31.348 26.66,-31.348ZM36.67,-6.201L87.256,-6.201C89.453,-6.201 91.211,-7.91 91.211,-10.107C91.211,-12.305 89.453,-14.063 87.256,-14.063L36.67,-14.063C34.473,-14.063 32.764,-12.305 32.764,-10.107C32.764,-7.91 34.473,-6.201 36.67,-6.201Z" style="fill:rgb(191,191,191);fill-rule:nonzero;"/>
    </g>
</svg>
