<?xml version="1.0" encoding="UTF-8"?>
<svg xmlns="http://www.w3.org/2000/svg" xmlns:xlink="http://www.w3.org/1999/xlink" viewBox="0 0 500 500" width="500px" height="500px">
<g id="surface17257667">
<path style=" stroke:none;fill-rule:nonzero;fill:rgb(74.901962%,74.901962%,74.901962%);fill-opacity:1;" d="M 250 10 C 214.296875 10 184.023438 33.59375 173.75 65.9375 C 180.039062 69.21875 185.9375 73.203125 191.25 78.125 C 191.992188 78.828125 192.734375 79.609375 193.4375 80.3125 L 235.9375 122.8125 C 241.640625 128.515625 246.328125 134.921875 250 141.875 C 253.671875 134.960938 258.359375 128.515625 264.0625 122.8125 L 306.5625 80.3125 C 307.265625 79.570312 308.007812 78.828125 308.75 78.125 C 314.0625 73.203125 319.960938 69.21875 326.25 65.9375 C 316.015625 33.59375 285.703125 10 250 10 Z M 326.25 65.9375 C 328.359375 72.617188 329.414062 79.570312 329.6875 86.875 C 329.726562 87.929688 330 88.945312 330 90 L 330 150 C 330 158.203125 328.867188 166.015625 326.5625 173.4375 C 334.023438 171.132812 341.796875 170 350 170 L 410 170 C 411.015625 170 412.109375 169.960938 413.125 170 C 420.429688 170.273438 427.382812 171.640625 434.0625 173.75 C 449.6875 143.632812 444.921875 105.546875 419.6875 80.3125 C 404.570312 65.195312 384.492188 56.875 363.125 56.875 C 350.078125 56.875 337.5 60.078125 326.25 65.9375 Z M 434.0625 173.75 C 430.820312 179.960938 426.835938 185.898438 421.875 191.25 C 421.171875 191.992188 420.390625 192.695312 419.6875 193.4375 L 377.1875 235.9375 C 371.484375 241.640625 365.078125 246.328125 358.125 250 C 365.078125 253.671875 371.484375 258.359375 377.1875 264.0625 L 419.6875 306.5625 C 420.390625 307.265625 421.171875 308.007812 421.875 308.75 C 426.835938 314.101562 430.820312 320.039062 434.0625 326.25 C 466.40625 315.976562 490 285.703125 490 250 C 490 214.296875 466.40625 183.984375 434.0625 173.75 Z M 434.0625 326.25 C 427.382812 328.359375 420.429688 329.414062 413.125 329.6875 C 412.109375 329.726562 411.015625 330 410 330 L 350 330 C 341.796875 330 334.023438 328.867188 326.5625 326.5625 C 328.867188 334.023438 330 341.796875 330 350 L 330 410 C 330 411.054688 329.726562 412.109375 329.6875 413.125 C 329.414062 420.429688 328.359375 427.382812 326.25 434.0625 C 337.5 439.921875 350.078125 443.125 363.125 443.125 C 384.492188 443.125 404.570312 434.804688 419.6875 419.6875 C 444.921875 394.453125 449.6875 356.367188 434.0625 326.25 Z M 326.25 434.0625 C 319.960938 430.78125 314.0625 426.796875 308.75 421.875 C 308.007812 421.171875 307.304688 420.390625 306.5625 419.6875 L 264.0625 377.1875 C 258.359375 371.484375 253.671875 365.078125 250 358.125 C 246.328125 365.078125 241.640625 371.484375 235.9375 377.1875 L 193.4375 419.6875 C 192.734375 420.390625 191.992188 421.171875 191.25 421.875 C 185.9375 426.796875 180.039062 430.78125 173.75 434.0625 C 184.023438 466.40625 214.296875 490 250 490 C 285.703125 490 315.976562 466.40625 326.25 434.0625 Z M 173.75 434.0625 C 171.640625 427.382812 170.585938 420.429688 170.3125 413.125 C 170.273438 412.070312 170 411.054688 170 410 L 170 350 C 170 341.796875 171.132812 334.023438 173.4375 326.5625 C 166.015625 328.867188 158.203125 330 150 330 L 90 330 C 88.945312 330 87.890625 329.726562 86.875 329.6875 C 79.570312 329.414062 72.617188 328.359375 65.9375 326.25 C 60.078125 337.5 56.875 350.078125 56.875 363.125 C 56.875 384.492188 65.195312 404.570312 80.3125 419.6875 C 95.429688 434.804688 115.507812 443.125 136.875 443.125 C 149.921875 443.125 162.5 439.921875 173.75 434.0625 Z M 65.9375 326.25 C 69.21875 319.960938 73.203125 314.0625 78.125 308.75 C 78.828125 308.007812 79.609375 307.265625 80.3125 306.5625 L 122.8125 264.0625 C 128.515625 258.359375 134.921875 253.671875 141.875 250 C 134.921875 246.328125 128.515625 241.640625 122.8125 235.9375 L 80.3125 193.4375 C 79.609375 192.734375 78.828125 191.992188 78.125 191.25 C 73.203125 185.9375 69.21875 180.039062 65.9375 173.75 C 33.59375 184.023438 10 214.296875 10 250 C 10 285.703125 33.59375 316.015625 65.9375 326.25 Z M 65.9375 173.75 C 72.617188 171.640625 79.570312 170.585938 86.875 170.3125 C 87.890625 170.273438 88.945312 170 90 170 L 150 170 C 158.203125 170 166.015625 171.132812 173.4375 173.4375 C 171.132812 166.015625 170 158.203125 170 150 L 170 90 C 170 88.945312 170.273438 87.890625 170.3125 86.875 C 170.585938 79.570312 171.640625 72.617188 173.75 65.9375 C 162.5 60.078125 149.921875 56.875 136.875 56.875 C 115.507812 56.875 95.429688 65.195312 80.3125 80.3125 C 65.195312 95.429688 56.875 115.507812 56.875 136.875 C 56.875 149.921875 60.078125 162.5 65.9375 173.75 Z M 190 105 L 190 150 C 190 176.953125 208.007812 199.648438 232.5 207.1875 C 237.03125 198.632812 239.375 189.296875 239.375 179.375 C 239.375 163.359375 233.203125 148.203125 221.875 136.875 Z M 310 105 L 278.125 136.875 C 266.796875 148.203125 260.625 163.359375 260.625 179.375 C 260.625 189.296875 262.96875 198.632812 267.5 207.1875 C 291.992188 199.648438 310 176.953125 310 150 Z M 105 190 L 136.875 221.875 C 148.203125 233.203125 163.359375 239.375 179.375 239.375 C 189.296875 239.375 198.632812 237.03125 207.1875 232.5 C 199.648438 208.007812 176.953125 190 150 190 Z M 350 190 C 323.046875 190 300.351562 208.007812 292.8125 232.5 C 301.367188 237.03125 310.703125 239.375 320.625 239.375 C 336.640625 239.375 351.796875 233.203125 363.125 221.875 L 395 190 Z M 241.5625 229.6875 C 239.804688 231.875 237.96875 233.945312 235.9375 235.9375 C 233.90625 237.929688 231.875 239.804688 229.6875 241.5625 C 229.960938 244.335938 230 247.148438 230 250 C 230 252.851562 229.960938 255.664062 229.6875 258.4375 C 231.875 260.195312 233.90625 262.03125 235.9375 264.0625 C 237.96875 266.09375 239.804688 268.125 241.5625 270.3125 C 244.335938 270.039062 247.148438 270 250 270 C 252.851562 270 255.664062 270.039062 258.4375 270.3125 C 260.195312 268.125 262.03125 266.054688 264.0625 264.0625 C 266.09375 262.070312 268.125 260.195312 270.3125 258.4375 C 270.039062 255.664062 270 252.851562 270 250 C 270 247.148438 270.039062 244.335938 270.3125 241.5625 C 268.125 239.804688 266.054688 237.96875 264.0625 235.9375 C 262.03125 233.90625 260.195312 231.875 258.4375 229.6875 C 255.664062 229.960938 252.851562 230 250 230 C 247.148438 230 244.335938 229.960938 241.5625 229.6875 Z M 179.375 260.625 C 163.359375 260.625 148.203125 267.109375 136.875 278.4375 L 105 310 L 150 310 C 176.953125 310 199.648438 291.992188 207.1875 267.5 C 198.632812 262.96875 189.296875 260.625 179.375 260.625 Z M 320.625 260.625 C 310.703125 260.625 301.054688 262.96875 292.5 267.5 C 300.078125 291.992188 323.046875 310 350 310 L 395 310 L 363.125 278.125 C 351.796875 266.796875 336.640625 260.625 320.625 260.625 Z M 232.5 292.5 C 208.007812 300.078125 190 323.046875 190 350 L 190 395 L 221.875 363.125 C 233.203125 351.796875 239.375 336.640625 239.375 320.625 C 239.375 310.703125 237.03125 301.054688 232.5 292.5 Z M 267.5 292.8125 C 262.96875 301.367188 260.625 310.703125 260.625 320.625 C 260.625 336.640625 267.109375 351.796875 278.4375 363.125 L 310 395 L 310 350 C 310 323.046875 291.992188 300.351562 267.5 292.8125 Z M 267.5 292.8125 "/>
</g>
</svg>
