<?xml version="1.0" encoding="UTF-8"?>
<svg xmlns="http://www.w3.org/2000/svg" xmlns:xlink="http://www.w3.org/1999/xlink" viewBox="0 0 500 500" width="500px" height="500px">
<g id="surface17255116">
<path style=" stroke:none;fill-rule:nonzero;fill:rgb(74.901962%,74.901962%,74.901962%);fill-opacity:1;" d="M 250 10 C 214.335938 10 184.335938 33.59375 174.0625 65.9375 C 162.460938 59.84375 149.6875 56.875 136.875 56.875 C 116.367188 56.875 95.898438 64.726562 80.3125 80.3125 C 55 105.625 50.117188 143.867188 65.9375 174.0625 C 33.59375 184.335938 10 214.335938 10 250 C 10 285.703125 33.554688 316.015625 65.9375 326.25 C 50.273438 356.40625 55.078125 394.453125 80.3125 419.6875 C 105.546875 444.921875 143.59375 449.726562 173.75 434.0625 C 183.984375 466.445312 214.296875 490 250 490 C 285.703125 490 316.015625 466.445312 326.25 434.0625 C 356.40625 449.726562 394.453125 444.921875 419.6875 419.6875 C 445 394.375 449.882812 356.132812 434.0625 325.9375 C 466.40625 315.664062 490 285.664062 490 250 C 490 214.335938 466.40625 184.335938 434.0625 174.0625 C 434.101562 173.984375 434.023438 173.828125 434.0625 173.75 C 449.726562 143.59375 444.921875 105.546875 419.6875 80.3125 C 404.101562 64.726562 383.632812 56.875 363.125 56.875 C 350.390625 56.875 337.773438 59.921875 326.25 65.9375 C 326.25 65.898438 325.9375 65.976562 325.9375 65.9375 C 315.664062 33.59375 285.664062 10 250 10 Z M 250 30 C 279.21875 30 303.28125 50.585938 308.75 78.125 C 308.007812 78.828125 307.304688 79.570312 306.5625 80.3125 L 264.0625 122.8125 C 258.398438 128.476562 253.59375 134.84375 250 141.5625 C 246.40625 134.84375 241.601562 128.476562 235.9375 122.8125 L 193.4375 80.3125 C 192.695312 79.570312 191.992188 78.828125 191.25 78.125 C 196.71875 50.585938 220.78125 30 250 30 Z M 136.875 76.875 C 148.359375 76.875 160 80 170 86.5625 C 169.960938 87.695312 170 88.828125 170 90 L 170 150 C 170 158.28125 171.40625 166.25 173.75 173.75 C 166.25 171.40625 158.28125 170 150 170 L 90 170 C 88.828125 170 87.695312 169.960938 86.5625 170 C 71.132812 146.640625 73.789062 114.960938 94.375 94.375 C 106.132812 82.617188 121.523438 76.875 136.875 76.875 Z M 363.125 76.875 C 378.476562 76.875 393.867188 82.617188 405.625 94.375 C 426.210938 114.960938 428.867188 146.640625 413.4375 170 C 412.304688 169.960938 411.171875 170 410 170 L 350 170 C 341.71875 170 333.75 171.40625 326.25 173.75 C 328.59375 166.25 330 158.28125 330 150 L 330 90 C 330 88.828125 330.039062 87.695312 330 86.5625 C 340 80 351.640625 76.875 363.125 76.875 Z M 190 105 L 221.875 136.875 C 240.976562 155.976562 244.453125 184.570312 232.5 207.1875 C 207.890625 199.726562 190 177.109375 190 150 Z M 310 105 L 310 150 C 310 177.109375 292.109375 199.726562 267.5 207.1875 C 255.546875 184.492188 259.023438 155.976562 278.125 136.875 Z M 105 190 L 150 190 C 177.109375 190 199.726562 207.890625 207.1875 232.5 C 184.492188 244.453125 155.976562 240.976562 136.875 221.875 Z M 350 190 L 395 190 L 363.125 221.875 C 344.023438 240.976562 315.429688 244.453125 292.8125 232.5 C 300.273438 207.890625 322.890625 190 350 190 Z M 77.8125 191.25 C 77.929688 191.210938 78.007812 191.289062 78.125 191.25 C 78.828125 191.992188 79.570312 192.695312 80.3125 193.4375 L 122.8125 235.9375 C 128.476562 241.601562 134.84375 246.40625 141.5625 250 C 134.84375 253.632812 128.476562 258.398438 122.8125 264.0625 L 80.3125 306.5625 C 79.570312 307.304688 78.828125 308.007812 78.125 308.75 C 50.585938 303.28125 30 279.21875 30 250 C 30 220.898438 50.429688 196.835938 77.8125 191.25 Z M 421.875 191.25 C 449.414062 196.71875 470 220.78125 470 250 C 470 279.21875 449.414062 303.28125 421.875 308.75 C 421.171875 308.007812 420.429688 307.304688 419.6875 306.5625 L 377.1875 264.0625 C 371.523438 258.398438 365.15625 253.632812 358.4375 250 C 365.15625 246.40625 371.523438 241.601562 377.1875 235.9375 L 419.6875 193.4375 C 420.429688 192.695312 421.171875 191.992188 421.875 191.25 Z M 241.875 229.6875 C 244.570312 229.960938 247.226562 230 250 230 C 252.773438 230 255.429688 229.960938 258.125 229.6875 C 259.921875 231.914062 261.992188 233.867188 264.0625 235.9375 C 266.132812 238.007812 268.085938 240.078125 270.3125 241.875 C 270.039062 244.570312 270 247.226562 270 250 C 270 252.773438 270.039062 255.429688 270.3125 258.125 C 268.085938 259.921875 266.132812 261.992188 264.0625 264.0625 C 261.992188 266.132812 259.921875 268.085938 258.125 270.3125 C 255.429688 270.039062 252.773438 270 250 270 C 247.226562 270 244.570312 270.039062 241.875 270.3125 C 240.078125 268.085938 238.007812 266.132812 235.9375 264.0625 C 233.867188 261.992188 231.914062 259.921875 229.6875 258.125 C 229.960938 255.429688 230 252.773438 230 250 C 230 247.226562 229.960938 244.570312 229.6875 241.875 C 231.914062 240.078125 233.867188 238.007812 235.9375 235.9375 C 238.007812 233.867188 240.078125 231.914062 241.875 229.6875 Z M 179.375 260.625 C 188.945312 260.625 198.554688 262.929688 207.1875 267.5 C 199.726562 292.109375 177.109375 310 150 310 L 105 310 L 136.875 278.125 C 148.632812 266.367188 164.023438 260.625 179.375 260.625 Z M 320.625 260.625 C 335.976562 260.625 351.367188 266.367188 363.125 278.125 L 395 310 L 350 310 C 322.890625 310 300.273438 292.109375 292.8125 267.5 C 301.5625 262.929688 311.054688 260.625 320.625 260.625 Z M 232.1875 292.8125 C 232.265625 292.773438 232.421875 292.851562 232.5 292.8125 C 244.453125 315.507812 240.976562 344.023438 221.875 363.125 L 190 395 L 190 350 C 190 322.96875 207.734375 300.390625 232.1875 292.8125 Z M 267.5 292.8125 C 292.109375 300.273438 310 322.890625 310 350 L 310 395 L 278.125 363.125 C 259.023438 344.023438 255.546875 315.429688 267.5 292.8125 Z M 173.75 326.25 C 171.40625 333.75 170 341.71875 170 350 L 170 410 C 170 411.171875 169.960938 412.304688 170 413.4375 C 146.640625 428.867188 114.960938 426.210938 94.375 405.625 C 73.789062 385.039062 71.132812 353.359375 86.5625 330 C 87.695312 330.039062 88.828125 330 90 330 L 150 330 C 158.28125 330 166.25 328.59375 173.75 326.25 Z M 326.25 326.25 C 333.75 328.59375 341.71875 330 350 330 L 410 330 C 411.171875 330 412.304688 330.039062 413.4375 330 C 428.867188 353.359375 426.210938 385.039062 405.625 405.625 C 385.039062 426.210938 353.359375 428.867188 330 413.4375 C 330.039062 412.304688 330 411.171875 330 410 L 330 350 C 330 341.71875 328.59375 333.75 326.25 326.25 Z M 250 358.4375 C 253.59375 365.15625 258.398438 371.523438 264.0625 377.1875 L 306.5625 419.6875 C 307.304688 420.429688 308.007812 421.171875 308.75 421.875 C 303.28125 449.414062 279.21875 470 250 470 C 220.78125 470 196.71875 449.414062 191.25 421.875 C 191.992188 421.171875 192.695312 420.429688 193.4375 419.6875 L 235.9375 377.1875 C 241.601562 371.523438 246.40625 365.15625 250 358.4375 Z M 250 358.4375 "/>
</g>
</svg>
