<?xml version="1.0" encoding="UTF-8" standalone="no"?>
<!DOCTYPE svg PUBLIC "-//W3C//DTD SVG 1.1//EN" "http://www.w3.org/Graphics/SVG/1.1/DTD/svg11.dtd">
<svg width="100%" height="100%" viewBox="0 0 116 90" version="1.1" xmlns="http://www.w3.org/2000/svg" xmlns:xlink="http://www.w3.org/1999/xlink" xml:space="preserve" xmlns:serif="http://www.serif.com/" style="fill-rule:evenodd;clip-rule:evenodd;stroke-linejoin:round;stroke-miterlimit:2;">
    <g id="Regular-M" transform="matrix(1,0,0,1,-12.4512,80.127)">
        <path d="M53.711,-54.736L86.328,-54.736L86.328,-80.127L53.711,-80.127L53.711,-54.736ZM93.994,-54.736L127.588,-54.736L127.588,-64.99C127.588,-75.049 122.51,-80.127 112.256,-80.127L93.994,-80.127L93.994,-54.736ZM86.328,-23.291L86.328,-47.119L53.711,-47.119L53.711,-23.291L86.328,-23.291ZM46.045,-54.736L46.045,-80.127L27.783,-80.127C17.578,-80.127 12.451,-75.098 12.451,-64.99L12.451,-54.736L46.045,-54.736ZM127.588,-47.119L93.994,-47.119L93.994,-23.291L127.588,-23.291L127.588,-47.119ZM46.045,-23.291L46.045,-47.119L12.451,-47.119L12.451,-23.291L46.045,-23.291ZM93.994,9.766L112.256,9.766C122.51,9.766 127.588,4.688 127.588,-5.371L127.588,-15.625L93.994,-15.625L93.994,9.766ZM86.328,-15.625L53.711,-15.625L53.711,9.766L86.328,9.766L86.328,-15.625ZM27.783,9.766L46.045,9.766L46.045,-15.625L12.451,-15.625L12.451,-5.371C12.451,4.736 17.578,9.766 27.783,9.766Z" style="fill:rgb(191,191,191);fill-rule:nonzero;"/>
    </g>
</svg>
