<?xml version="1.0" encoding="UTF-8" standalone="no"?>
<!DOCTYPE svg PUBLIC "-//W3C//DTD SVG 1.1//EN" "http://www.w3.org/Graphics/SVG/1.1/DTD/svg11.dtd">
<svg width="100%" height="100%" viewBox="0 0 104 104" version="1.1" xmlns="http://www.w3.org/2000/svg" xmlns:xlink="http://www.w3.org/1999/xlink" xml:space="preserve" xmlns:serif="http://www.serif.com/" style="fill-rule:evenodd;clip-rule:evenodd;stroke-linejoin:round;stroke-miterlimit:2;">
    <g id="Regular-M" transform="matrix(1,0,0,1,-11.2366,87.5305)">
        <path d="M62.402,-15.527L68.897,-22.119C62.451,-22.607 58.252,-24.561 55.078,-27.734C46.533,-36.279 46.582,-48.389 55.029,-56.836L70.947,-72.754C79.492,-81.25 91.504,-81.299 100.049,-72.754C108.594,-64.209 108.496,-52.148 100.049,-43.701L90.479,-34.131C91.846,-31.006 92.139,-27.393 91.65,-24.219L106.006,-38.525C117.676,-50.244 117.773,-66.797 105.957,-78.662C94.092,-90.527 77.49,-90.43 65.772,-78.711L49.121,-62.012C37.402,-50.293 37.305,-33.691 49.17,-21.875C52.246,-18.799 56.152,-16.602 62.402,-15.527ZM63.623,-55.762L57.129,-49.17C63.574,-48.633 67.773,-46.728 70.947,-43.555C79.492,-35.01 79.443,-22.9 70.996,-14.453L55.029,1.465C46.533,9.961 34.522,10.01 25.977,1.514C17.432,-7.08 17.481,-19.092 25.977,-27.588L35.547,-37.158C34.18,-40.234 33.838,-43.897 34.375,-47.07L20.02,-32.764C8.35,-21.045 8.252,-4.443 20.068,7.373C31.934,19.238 48.535,19.141 60.205,7.471L76.904,-9.277C88.623,-20.996 88.721,-37.598 76.856,-49.414C73.779,-52.49 69.873,-54.688 63.623,-55.762Z" style="fill:rgb(191,191,191);fill-rule:nonzero;"/>
    </g>
</svg>
